<mxfile host="app.diagrams.net" agent="Mozilla/5.0 (Windows NT 10.0; Win64; x64) AppleWebKit/537.36 (KHTML, like Gecko) Chrome/137.0.0.0 Safari/537.36" version="27.1.4">
  <diagram id="7gcUSTIZ7YSJ5vT40chW" name="Page-1">
    <mxGraphModel dx="1426" dy="743" grid="1" gridSize="10" guides="1" tooltips="1" connect="1" arrows="1" fold="1" page="1" pageScale="1" pageWidth="1169" pageHeight="827" math="0" shadow="0">
      <root>
        <mxCell id="0" />
        <mxCell id="1" parent="0" />
        <mxCell id="NSxlFpYSFV0zkJ1WkVVA-1" value="" style="rounded=1;whiteSpace=wrap;html=1;" parent="1" vertex="1">
          <mxGeometry x="381" y="91" width="780" height="519" as="geometry" />
        </mxCell>
        <mxCell id="NSxlFpYSFV0zkJ1WkVVA-10" value="&lt;div&gt;&lt;br&gt;&lt;/div&gt;&lt;div&gt;&lt;br&gt;&lt;/div&gt;" style="edgeStyle=orthogonalEdgeStyle;rounded=0;orthogonalLoop=1;jettySize=auto;html=1;entryX=0;entryY=0.5;entryDx=0;entryDy=0;flowAnimation=1;" parent="1" source="NSxlFpYSFV0zkJ1WkVVA-2" target="NSxlFpYSFV0zkJ1WkVVA-9" edge="1">
          <mxGeometry relative="1" as="geometry" />
        </mxCell>
        <mxCell id="NSxlFpYSFV0zkJ1WkVVA-2" value="BFF" style="image;aspect=fixed;perimeter=ellipsePerimeter;html=1;align=center;shadow=0;dashed=0;fontColor=#4277BB;labelBackgroundColor=default;fontSize=12;spacingTop=3;image=img/lib/ibm/infrastructure/mobile_backend.svg;" parent="1" vertex="1">
          <mxGeometry x="211" y="319" width="60" height="60" as="geometry" />
        </mxCell>
        <mxCell id="NSxlFpYSFV0zkJ1WkVVA-4" style="edgeStyle=orthogonalEdgeStyle;rounded=0;orthogonalLoop=1;jettySize=auto;html=1;flowAnimation=1;" parent="1" source="NSxlFpYSFV0zkJ1WkVVA-3" target="NSxlFpYSFV0zkJ1WkVVA-2" edge="1">
          <mxGeometry relative="1" as="geometry" />
        </mxCell>
        <mxCell id="NSxlFpYSFV0zkJ1WkVVA-3" value="mobile" style="shape=image;verticalLabelPosition=bottom;labelBackgroundColor=#ffffff;verticalAlign=top;aspect=fixed;imageAspect=0;image=data:image/svg+xml,PHN2ZyB4bWxuczpkYz0iaHR0cDovL3B1cmwub3JnL2RjL2VsZW1lbnRzLzEuMS8iIHhtbG5zOmNjPSJodHRwOi8vY3JlYXRpdmVjb21tb25zLm9yZy9ucyMiIHhtbG5zOnJkZj0iaHR0cDovL3d3dy53My5vcmcvMTk5OS8wMi8yMi1yZGYtc3ludGF4LW5zIyIgeG1sbnM6c3ZnPSJodHRwOi8vd3d3LnczLm9yZy8yMDAwL3N2ZyIgeG1sbnM9Imh0dHA6Ly93d3cudzMub3JnLzIwMDAvc3ZnIiB4bWxuczpzb2RpcG9kaT0iaHR0cDovL3NvZGlwb2RpLnNvdXJjZWZvcmdlLm5ldC9EVEQvc29kaXBvZGktMC5kdGQiIHhtbG5zOmlua3NjYXBlPSJodHRwOi8vd3d3Lmlua3NjYXBlLm9yZy9uYW1lc3BhY2VzL2lua3NjYXBlIiB2ZXJzaW9uPSIxLjEiIGlkPSJzdmc4NTcyNyIgaW5rc2NhcGU6dmVyc2lvbj0iMC45Mi4zICgyNDA1NTQ2LCAyMDE4LTAzLTExKSIgc29kaXBvZGk6ZG9jbmFtZT0ibW9iaWxlX2FwcHMuc3ZnIiB4PSIwcHgiIHk9IjBweCIgdmlld0JveD0iMCAwIDQ0LjMzIDY0LjMzOTk5MyIgeG1sOnNwYWNlPSJwcmVzZXJ2ZSIgd2lkdGg9IjQ0LjMzMDAwMiIgaGVpZ2h0PSI2NC4zMzk5OTYiPjxtZXRhZGF0YSBpZD0ibWV0YWRhdGE0NDI3Ij48cmRmOlJERj48Y2M6V29yayByZGY6YWJvdXQ9IiI+PGRjOmZvcm1hdD5pbWFnZS9zdmcreG1sPC9kYzpmb3JtYXQ+PGRjOnR5cGUgcmRmOnJlc291cmNlPSJodHRwOi8vcHVybC5vcmcvZGMvZGNtaXR5cGUvU3RpbGxJbWFnZSIvPjxkYzp0aXRsZS8+PC9jYzpXb3JrPjwvcmRmOlJERj48L21ldGFkYXRhPjxkZWZzIGlkPSJkZWZzNDQyNSI+JiN4YTsJJiN4YTsmI3hhOwkmI3hhOyYjeGE7CSYjeGE7JiN4YTsJJiN4YTsmI3hhOwkmI3hhOyYjeGE7CSYjeGE7JiN4YTsJJiN4YTsmI3hhOwkmI3hhOyYjeGE7CSYjeGE7JiN4YTsJJiN4YTsmI3hhOwkJJiN4YTsJJiN4YTsJCSYjeGE7CSYjeGE7CQkmI3hhOwkmI3hhOwkJJiN4YTsJJiN4YTsJCSYjeGE7CSYjeGE7CQkmI3hhOwkmI3hhOwkJJiN4YTsJJiN4YTsJCSYjeGE7CSYjeGE7CQkmI3hhOwkmI3hhOwkJJiN4YTsJPC9kZWZzPiYjeGE7PGZpbHRlciBpZD0iZmlsdGVyXzIiPiYjeGE7CTxmZUdhdXNzaWFuQmx1ciBpZD0iZmVHYXVzc2lhbkJsdXI4NTYzNiIgc3RkRGV2aWF0aW9uPSIyIi8+JiN4YTs8L2ZpbHRlcj4mI3hhOzxzb2RpcG9kaTpuYW1lZHZpZXcgYm9yZGVyY29sb3I9IiM2NjY2NjYiIGJvcmRlcm9wYWNpdHk9IjEiIGZpdC1tYXJnaW4tYm90dG9tPSIwIiBmaXQtbWFyZ2luLWxlZnQ9IjAiIGZpdC1tYXJnaW4tcmlnaHQ9IjAiIGZpdC1tYXJnaW4tdG9wPSIwIiBncmlkdG9sZXJhbmNlPSIxMCIgZ3VpZGV0b2xlcmFuY2U9IjEwIiBpZD0ibmFtZWR2aWV3ODU3MjkiIGlua3NjYXBlOmN1cnJlbnQtbGF5ZXI9InN2Zzg1NzI3IiBpbmtzY2FwZTpjeD0iLTEzLjk5MTk2MyIgaW5rc2NhcGU6Y3k9IjI4LjEwNjUyNCIgaW5rc2NhcGU6cGFnZW9wYWNpdHk9IjAiIGlua3NjYXBlOnBhZ2VzaGFkb3c9IjIiIGlua3NjYXBlOndpbmRvdy1oZWlnaHQ9IjEwMTciIGlua3NjYXBlOndpbmRvdy1tYXhpbWl6ZWQ9IjEiIGlua3NjYXBlOndpbmRvdy13aWR0aD0iMTkyMCIgaW5rc2NhcGU6d2luZG93LXg9Ii04IiBpbmtzY2FwZTp3aW5kb3cteT0iLTgiIGlua3NjYXBlOnpvb209IjcuMzIwNTc3NCIgb2JqZWN0dG9sZXJhbmNlPSIxMCIgcGFnZWNvbG9yPSIjZmZmZmZmIiBzaG93Z3JpZD0iZmFsc2UiPiYjeGE7CTwvc29kaXBvZGk6bmFtZWR2aWV3PiYjeGE7JiN4YTs8cGF0aCBpZD0icGF0aDg1NjQ5IiBpbmtzY2FwZTpjb25uZWN0b3ItY3VydmF0dXJlPSIwIiBzdHlsZT0iZmlsbDojM2UzZTNlIiBkPSJtIDQ0LjMzLDYwLjQ4IGMgMCwyLjE0IC0xLjczLDMuODYgLTMuODYsMy44NiBIIDMuODYgQyAxLjczLDY0LjM0IDAsNjIuNjIgMCw2MC40OCBWIDMuODYgQyAwLDEuNzMgMS43MywwIDMuODYsMCBoIDM2LjYxIGMgMi4xMywwIDMuODYsMS43MyAzLjg2LDMuODYgeiIvPiYjeGE7JiN4YTs8cmVjdCBpZD0icmVjdDg1NjU3IiB4PSIyLjg2MDAwMDYiIHk9IjYuNDI5OTk5OCIgc3R5bGU9ImZpbGw6IzU5YjRkOSIgd2lkdGg9IjM4LjYxMDAwMSIgaGVpZ2h0PSI0NS4zMzAwMDIiLz4mI3hhOyYjeGE7PHBhdGggaWQ9InBhdGg4NTY2NSIgaW5rc2NhcGU6Y29ubmVjdG9yLWN1cnZhdHVyZT0iMCIgc3R5bGU9ImZpbGw6I2ZmZmZmZiIgZD0ibSAyNS44OSw1OC4wNSBjIDAsMi4wNSAtMS42NywzLjcxIC0zLjcyLDMuNzEgLTIuMDUsMCAtMy43MiwtMS42NiAtMy43MiwtMy43MSAwLC0yLjA2IDEuNjcsLTMuNzIgMy43MiwtMy43MiAyLjA1LDAgMy43MiwxLjY2IDMuNzIsMy43MiB6Ii8+JiN4YTsmI3hhOzxwYXRoIGlkPSJwYXRoODU2NzMiIGlua3NjYXBlOmNvbm5lY3Rvci1jdXJ2YXR1cmU9IjAiIHN0eWxlPSJmaWxsOiNiOGQ0MzIiIGQ9Im0gMjQuNiw1OC4wNiBjIDAsMS4zNCAtMS4wOSwyLjQzIC0yLjQzLDIuNDMgLTEuMzUsMCAtMi40NCwtMS4wOSAtMi40NCwtMi40MyAwLC0xLjM1IDEuMDksLTIuNDQgMi40NCwtMi40NCAxLjM0LDAgMi40MywxLjA5IDIuNDMsMi40NCB6Ii8+JiN4YTsmI3hhOyYjeGE7JiN4YTsmI3hhOyYjeGE7PHBhdGggaWQ9InBhdGg4NTY5NyIgaW5rc2NhcGU6Y29ubmVjdG9yLWN1cnZhdHVyZT0iMCIgc3R5bGU9ImZpbGw6I2ZmZmZmZiIgZD0ibSAyOC43NCwzLjYzIGMgMCwwLjUyIC0wLjQyLDAuOTQgLTAuOTUsMC45NCBIIDE2LjU0IGMgLTAuNTIsMCAtMC45NSwtMC40MiAtMC45NSwtMC45NCAwLC0wLjUzIDAuNDMsLTAuOTYgMC45NSwtMC45NiBoIDExLjI1IGMgMC41MywwIDAuOTUsMC40MyAwLjk1LDAuOTYgeiIvPiYjeGE7JiN4YTs8cGF0aCBpZD0icGF0aDg1NzA1IiBpbmtzY2FwZTpjb25uZWN0b3ItY3VydmF0dXJlPSIwIiBzdHlsZT0iZmlsbDojZmZmZmZmIiBkPSJtIDIyLjIsMjcuNDIgYyAtMC4wNiwwIC0wLjExLC0wLjAxIC0wLjE3LC0wLjA0IEwgMTAuNywyMC44NCBjIC0wLjEsLTAuMDcgLTAuMTcsLTAuMTggLTAuMTcsLTAuMyAwLC0wLjEyIDAuMDcsLTAuMjQgMC4xNywtMC4zIGwgMTEuMjYsLTYuNDkgYyAwLjExLC0wLjA2IDAuMjQsLTAuMDYgMC4zNCwwIGwgMTEuMzMsNi41NCBjIDAuMTEsMC4wNiAwLjE3LDAuMTcgMC4xNywwLjI5IDAsMC4xMyAtMC4wNiwwLjI0IC0wLjE3LDAuMyBsIC0xMS4yNSw2LjUgYyAtMC4wNiwwLjAzIC0wLjExLDAuMDQgLTAuMTgsMC4wNCB6Ii8+JiN4YTsmI3hhOzxwYXRoIGlkPSJwYXRoODU3MTMiIGlua3NjYXBlOmNvbm5lY3Rvci1jdXJ2YXR1cmU9IjAiIHN0eWxlPSJmaWxsOiNmZmZmZmY7ZmlsbC1vcGFjaXR5OjAuNyIgZD0ibSAyMC41Nyw0My4zMiBjIC0wLjA2LDAgLTAuMTIsLTAuMDEgLTAuMTcsLTAuMDQgTCA5LjExLDM2Ljc2IEMgOSwzNi43IDguOTMsMzYuNTkgOC45MywzNi40NiBWIDIzLjM4IGMgMCwtMC4xMiAwLjA3LC0wLjI0IDAuMTgsLTAuMyAwLjEsLTAuMDYgMC4yMywtMC4wNiAwLjM0LDAgbCAxMS4zLDYuNTIgYyAwLjEsMC4wNiAwLjE2LDAuMTggMC4xNiwwLjMgdiAxMy4wOCBjIDAsMC4xMyAtMC4wNiwwLjI0IC0wLjE2LDAuMyAtMC4wNiwwLjAzIC0wLjEyLDAuMDQgLTAuMTgsMC4wNCB6Ii8+JiN4YTsmI3hhOzxwYXRoIGlkPSJwYXRoODU3MjEiIGlua3NjYXBlOmNvbm5lY3Rvci1jdXJ2YXR1cmU9IjAiIHN0eWxlPSJmaWxsOiNmZmZmZmY7ZmlsbC1vcGFjaXR5OjAuNCIgZD0ibSAyMy43Nyw0My4zMiBjIC0wLjA2LDAgLTAuMTIsLTAuMDEgLTAuMTcsLTAuMDQgLTAuMSwtMC4wNiAtMC4xNywtMC4xNyAtMC4xNywtMC4zIHYgLTEzIGMgMCwtMC4xMiAwLjA3LC0wLjIzIDAuMTcsLTAuMyBsIDExLjI5LC02LjUxIGMgMC4xMSwtMC4wNiAwLjI0LC0wLjA2IDAuMzQsMCAwLjExLDAuMDYgMC4xNywwLjE3IDAuMTcsMC4yOSB2IDEzIGMgMCwwLjEzIC0wLjA2LDAuMjQgLTAuMTcsMC4zIGwgLTExLjI5LDYuNTIgYyAtMC4wNSwwLjAzIC0wLjExLDAuMDQgLTAuMTcsMC4wNCB6Ii8+JiN4YTs8cGF0aCBpZD0icGF0aDg2MDI3IiBpbmtzY2FwZTpjb25uZWN0b3ItY3VydmF0dXJlPSIwIiBzdHlsZT0iZmlsbDojZmZmZmZmO2ZpbGwtb3BhY2l0eTowLjE1IiBkPSJNIDIuODYwMDAwNiw1MS43OSBWIDYuNDI5OTk5OCBIIDMyLjI0MDAwMSBsIDIuNTgsLTYuNDM5OTk5NjcgSCAzLjkwMDAwMDYgYyAtMi4xOSwwIC0zLjg2OTk5OTk5LDEuNjc5OTk5OTcgLTMuODY5OTk5OTksMy44Njk5OTk5NyBWIDYwLjU1IGMgMCwyLjE5IDEuNjc5OTk5OTksMy44NyAzLjg2OTk5OTk5LDMuODcgaCA0Ljc2IEwgMTMuODIwMDAxLDUxLjc5IFoiLz48L3N2Zz4=;" parent="1" vertex="1">
          <mxGeometry x="21" y="209" width="44" height="64" as="geometry" />
        </mxCell>
        <mxCell id="NSxlFpYSFV0zkJ1WkVVA-8" style="edgeStyle=orthogonalEdgeStyle;rounded=0;orthogonalLoop=1;jettySize=auto;html=1;entryX=0.5;entryY=1;entryDx=0;entryDy=0;flowAnimation=1;" parent="1" source="NSxlFpYSFV0zkJ1WkVVA-7" target="NSxlFpYSFV0zkJ1WkVVA-2" edge="1">
          <mxGeometry relative="1" as="geometry" />
        </mxCell>
        <mxCell id="NSxlFpYSFV0zkJ1WkVVA-7" value="pc" style="shape=image;verticalLabelPosition=bottom;labelBackgroundColor=#ffffff;verticalAlign=top;aspect=fixed;imageAspect=0;image=data:image/svg+xml,PHN2ZyB4bWxuczpkYz0iaHR0cDovL3B1cmwub3JnL2RjL2VsZW1lbnRzLzEuMS8iIHhtbG5zOmNjPSJodHRwOi8vY3JlYXRpdmVjb21tb25zLm9yZy9ucyMiIHhtbG5zOnJkZj0iaHR0cDovL3d3dy53My5vcmcvMTk5OS8wMi8yMi1yZGYtc3ludGF4LW5zIyIgeG1sbnM6c3ZnPSJodHRwOi8vd3d3LnczLm9yZy8yMDAwL3N2ZyIgeG1sbnM9Imh0dHA6Ly93d3cudzMub3JnLzIwMDAvc3ZnIiB4bWxuczpzb2RpcG9kaT0iaHR0cDovL3NvZGlwb2RpLnNvdXJjZWZvcmdlLm5ldC9EVEQvc29kaXBvZGktMC5kdGQiIHhtbG5zOmlua3NjYXBlPSJodHRwOi8vd3d3Lmlua3NjYXBlLm9yZy9uYW1lc3BhY2VzL2lua3NjYXBlIiB2ZXJzaW9uPSIxLjEiIGlkPSJzdmc2MTAxMSIgaW5rc2NhcGU6dmVyc2lvbj0iMC45Mi4zICgyNDA1NTQ2LCAyMDE4LTAzLTExKSIgc29kaXBvZGk6ZG9jbmFtZT0iYXp1cmVfcG9ydGFsX3ZpcnR1YWxfbWFjaGluZXMuc3ZnIiB4PSIwcHgiIHk9IjBweCIgdmlld0JveD0iMCAwIDU3LjY0IDUzLjIwMDAwMiIgeG1sOnNwYWNlPSJwcmVzZXJ2ZSIgd2lkdGg9IjU3LjYzOTk5OSIgaGVpZ2h0PSI1My4yMDAwMDEiPjxtZXRhZGF0YSBpZD0ibWV0YWRhdGExMDk5MCI+PHJkZjpSREY+PGNjOldvcmsgcmRmOmFib3V0PSIiPjxkYzpmb3JtYXQ+aW1hZ2Uvc3ZnK3htbDwvZGM6Zm9ybWF0PjxkYzp0eXBlIHJkZjpyZXNvdXJjZT0iaHR0cDovL3B1cmwub3JnL2RjL2RjbWl0eXBlL1N0aWxsSW1hZ2UiLz48ZGM6dGl0bGUvPjwvY2M6V29yaz48L3JkZjpSREY+PC9tZXRhZGF0YT48ZGVmcyBpZD0iZGVmczEwOTg4Ii8+JiN4YTs8ZmlsdGVyIGlkPSJmaWx0ZXJfMiI+JiN4YTsJPGZlR2F1c3NpYW5CbHVyIGlkPSJmZUdhdXNzaWFuQmx1cjYwOTIwIiBzdGREZXZpYXRpb249IjIiLz4mI3hhOzwvZmlsdGVyPiYjeGE7PHNvZGlwb2RpOm5hbWVkdmlldyBib3JkZXJjb2xvcj0iIzY2NjY2NiIgYm9yZGVyb3BhY2l0eT0iMSIgZml0LW1hcmdpbi1ib3R0b209IjAiIGZpdC1tYXJnaW4tbGVmdD0iMCIgZml0LW1hcmdpbi1yaWdodD0iMCIgZml0LW1hcmdpbi10b3A9IjAiIGdyaWR0b2xlcmFuY2U9IjEwIiBndWlkZXRvbGVyYW5jZT0iMTAiIGlkPSJuYW1lZHZpZXc2MTAxMyIgaW5rc2NhcGU6Y3VycmVudC1sYXllcj0ic3ZnNjEwMTEiIGlua3NjYXBlOmN4PSItMzMuMTQzMzAzIiBpbmtzY2FwZTpjeT0iMjQuNjk2NTQ0IiBpbmtzY2FwZTpwYWdlb3BhY2l0eT0iMCIgaW5rc2NhcGU6cGFnZXNoYWRvdz0iMiIgaW5rc2NhcGU6d2luZG93LWhlaWdodD0iMTAxNyIgaW5rc2NhcGU6d2luZG93LW1heGltaXplZD0iMSIgaW5rc2NhcGU6d2luZG93LXdpZHRoPSIxOTIwIiBpbmtzY2FwZTp3aW5kb3cteD0iLTgiIGlua3NjYXBlOndpbmRvdy15PSItOCIgaW5rc2NhcGU6em9vbT0iNS45MTg3NzA5IiBvYmplY3R0b2xlcmFuY2U9IjEwIiBwYWdlY29sb3I9IiNmZmZmZmYiIHNob3dncmlkPSJmYWxzZSI+JiN4YTsJPC9zb2RpcG9kaTpuYW1lZHZpZXc+JiN4YTsmI3hhOzxwYXRoIGlkPSJwYXRoNjA5MzMiIGlua3NjYXBlOmNvbm5lY3Rvci1jdXJ2YXR1cmU9IjAiIHN0eWxlPSJmaWxsOiM3YTdhN2EiIGQ9Ik0gMzcuMzksNDIuMTIgSCAzNi4wMSAyMi40MiAyMS43MSBjIDEuODgsNi42NSAtMC42NSw3LjYgLTExLjczLDcuNiB2IDMuNDggaCAxNC4xIDEwLjI5IDEzLjMgdiAtMy40OCBjIC0xMS4wOCwwIC0xMi4xNywtMC45NSAtMTAuMjgsLTcuNiB6Ii8+JiN4YTsmI3hhOzxwYXRoIGlkPSJwYXRoNjA5NDEiIGlua3NjYXBlOmNvbm5lY3Rvci1jdXJ2YXR1cmU9IjAiIHN0eWxlPSJmaWxsOiNhMGExYTIiIGQ9Ik0gNTQuMTYsMCBIIDMuMTMgQyAxLjQsMCAwLDEuNTUgMCwzLjI4IHYgMzUuNTkgYyAwLDEuNzIgMS40LDMuMjUgMy4xMywzLjI1IGggNTEuMDMgYyAxLjczLDAgMy40OCwtMS41MyAzLjQ4LC0zLjI1IFYgMy4yOCBDIDU3LjY0LDEuNTUgNTUuODksMCA1NC4xNiwwIFoiLz4mI3hhOyYjeGE7PHBhdGggaWQ9InBhdGg2MDk0OSIgaW5rc2NhcGU6Y29ubmVjdG9yLWN1cnZhdHVyZT0iMCIgc3R5bGU9ImZpbGw6I2ZmZmZmZjtmaWxsLW9wYWNpdHk6MC4yIiBkPSJNIDU0LjIsMCBDIDU0LjE5LDAgNTQuMTcsMCA1NC4xNiwwIEggMy4xMyBDIDEuNCwwIDAsMS41NSAwLDMuMjggdiAzNS41OSBjIDAsMS43MiAxLjQsMy4yNSAzLjEzLDMuMjUgaCAxLjIyIHoiLz4mI3hhOyYjeGE7PHJlY3QgaWQ9InJlY3Q2MDk1NyIgeD0iNC4zNjk5OTUxIiB5PSI0LjQ0MDAwMDEiIHN0eWxlPSJmaWxsOiM1OWI0ZDkiIHdpZHRoPSI0OC43Nzk5OTkiIGhlaWdodD0iMzMuMjUiLz4mI3hhOyYjeGE7JiN4YTsmI3hhOzxyZWN0IGlkPSJyZWN0NjA5NzMiIHg9IjkuOTc5OTk1NyIgeT0iNDkuNzIwMDAxIiBzdHlsZT0iZmlsbDojYTBhMWEyIiB3aWR0aD0iMzcuNjg5OTk5IiBoZWlnaHQ9IjMuNDgiLz4mI3hhOyYjeGE7PHBhdGggaWQ9InBhdGg2MDk4MSIgaW5rc2NhcGU6Y29ubmVjdG9yLWN1cnZhdHVyZT0iMCIgc3R5bGU9ImZpbGw6I2I4ZDQzMiIgZD0ibSAyOS40MiwyLjQyIGMgMCwwLjQ1IC0wLjM3LDAuODEgLTAuODIsMC44MSAtMC40NiwwIC0wLjgyLC0wLjM2IC0wLjgyLC0wLjgxIDAsLTAuNDYgMC4zNiwtMC44MiAwLjgyLC0wLjgyIDAuNDUsMCAwLjgyLDAuMzYgMC44MiwwLjgyIHoiLz4mI3hhOyYjeGE7PHBhdGggaWQ9InBhdGg2MDk4OSIgaW5rc2NhcGU6Y29ubmVjdG9yLWN1cnZhdHVyZT0iMCIgc3R5bGU9ImZpbGw6I2ZmZmZmZiIgZD0ibSAyOS40NSwyMC4wNSBjIC0wLjA2LDAgLTAuMTEsLTAuMDEgLTAuMTYsLTAuMDQgTCAxOS4xNCwxNC4xNSBjIC0wLjA5LC0wLjA1IC0wLjE1LC0wLjE2IC0wLjE1LC0wLjI2IDAsLTAuMTEgMC4wNiwtMC4yMiAwLjE1LC0wLjI3IEwgMjkuMjMsNy44IGMgMC4xLC0wLjA1IDAuMjEsLTAuMDUgMC4zLDAgbCAxMC4xNiw1Ljg2IGMgMC4wOSwwLjA1IDAuMTUsMC4xNiAwLjE1LDAuMjcgMCwwLjExIC0wLjA2LDAuMjEgLTAuMTUsMC4yNiBMIDI5LjYsMjAuMDEgYyAtMC4wNSwwLjAzIC0wLjEsMC4wNCAtMC4xNSwwLjA0IHoiLz4mI3hhOyYjeGE7PHBhdGggaWQ9InBhdGg2MDk5NyIgaW5rc2NhcGU6Y29ubmVjdG9yLWN1cnZhdHVyZT0iMCIgc3R5bGU9ImZpbGw6I2ZmZmZmZjtmaWxsLW9wYWNpdHk6MC43IiBkPSJtIDI3Ljk5LDM0LjI5IGMgLTAuMDYsMCAtMC4xMSwtMC4wMSAtMC4xNSwtMC4wNCBMIDE3LjcyLDI4LjQxIGMgLTAuMSwtMC4wNSAtMC4xNiwtMC4xNSAtMC4xNiwtMC4yNiBWIDE2LjQzIGMgMCwtMC4xMSAwLjA2LC0wLjIyIDAuMTYsLTAuMjcgMC4wOSwtMC4wNiAwLjIxLC0wLjA2IDAuMzEsMCBMIDI4LjE0LDIyIGMgMC4wOSwwLjA2IDAuMTUsMC4xNiAwLjE1LDAuMjcgdiAxMS43MiBjIDAsMC4xMSAtMC4wNiwwLjIxIC0wLjE1LDAuMjYgLTAuMDUsMC4wMyAtMC4xLDAuMDQgLTAuMTUsMC4wNCB6Ii8+JiN4YTsmI3hhOzxwYXRoIGlkPSJwYXRoNjEwMDUiIGlua3NjYXBlOmNvbm5lY3Rvci1jdXJ2YXR1cmU9IjAiIHN0eWxlPSJmaWxsOiNmZmZmZmY7ZmlsbC1vcGFjaXR5OjAuNCIgZD0iTSAzMC44NiwzNC4yOSBDIDMwLjgsMzQuMjkgMzAuNzUsMzQuMjggMzAuNywzNC4yNSAzMC42MSwzNC4yIDMwLjU1LDM0LjEgMzAuNTUsMzMuOTkgViAyMi4zNCBjIDAsLTAuMTEgMC4wNiwtMC4yMSAwLjE1LC0wLjI3IGwgMTAuMTIsLTUuODMgYyAwLjA5LC0wLjA2IDAuMjEsLTAuMDYgMC4zLDAgMC4xLDAuMDUgMC4xNiwwLjE1IDAuMTYsMC4yNiB2IDExLjY1IGMgMCwwLjExIC0wLjA2LDAuMjEgLTAuMTYsMC4yNiBsIC0xMC4xMSw1Ljg0IGMgLTAuMDQsMC4wMyAtMC4xLDAuMDQgLTAuMTUsMC4wNCB6Ii8+JiN4YTs8L3N2Zz4=;" parent="1" vertex="1">
          <mxGeometry x="7.000000000000114" y="469" width="58" height="53" as="geometry" />
        </mxCell>
        <mxCell id="NSxlFpYSFV0zkJ1WkVVA-13" style="edgeStyle=orthogonalEdgeStyle;rounded=0;orthogonalLoop=1;jettySize=auto;html=1;entryX=0;entryY=0.5;entryDx=0;entryDy=0;flowAnimation=1;startArrow=classic;startFill=1;" parent="1" source="NSxlFpYSFV0zkJ1WkVVA-9" target="NSxlFpYSFV0zkJ1WkVVA-11" edge="1">
          <mxGeometry relative="1" as="geometry" />
        </mxCell>
        <mxCell id="NSxlFpYSFV0zkJ1WkVVA-21" value="fast&lt;div&gt;dispaching&lt;/div&gt;" style="edgeLabel;html=1;align=center;verticalAlign=middle;resizable=0;points=[];" parent="NSxlFpYSFV0zkJ1WkVVA-13" vertex="1" connectable="0">
          <mxGeometry x="-0.089" y="-1" relative="1" as="geometry">
            <mxPoint x="1" as="offset" />
          </mxGeometry>
        </mxCell>
        <mxCell id="NSxlFpYSFV0zkJ1WkVVA-29" style="edgeStyle=orthogonalEdgeStyle;rounded=0;orthogonalLoop=1;jettySize=auto;html=1;entryX=0;entryY=0.5;entryDx=0;entryDy=0;flowAnimation=1;" parent="1" source="NSxlFpYSFV0zkJ1WkVVA-9" target="NSxlFpYSFV0zkJ1WkVVA-22" edge="1">
          <mxGeometry relative="1" as="geometry" />
        </mxCell>
        <mxCell id="NSxlFpYSFV0zkJ1WkVVA-41" value="query&lt;div&gt;with cache&lt;/div&gt;" style="edgeLabel;html=1;align=center;verticalAlign=middle;resizable=0;points=[];" parent="NSxlFpYSFV0zkJ1WkVVA-29" vertex="1" connectable="0">
          <mxGeometry x="0.0667" relative="1" as="geometry">
            <mxPoint as="offset" />
          </mxGeometry>
        </mxCell>
        <mxCell id="NSxlFpYSFV0zkJ1WkVVA-9" value="Gateway" style="shape=image;verticalLabelPosition=bottom;labelBackgroundColor=#ffffff;verticalAlign=top;aspect=fixed;imageAspect=0;image=data:image/svg+xml,PHN2ZyB4bWxuczpkYz0iaHR0cDovL3B1cmwub3JnL2RjL2VsZW1lbnRzLzEuMS8iIHhtbG5zOmNjPSJodHRwOi8vY3JlYXRpdmVjb21tb25zLm9yZy9ucyMiIHhtbG5zOnJkZj0iaHR0cDovL3d3dy53My5vcmcvMTk5OS8wMi8yMi1yZGYtc3ludGF4LW5zIyIgeG1sbnM6c3ZnPSJodHRwOi8vd3d3LnczLm9yZy8yMDAwL3N2ZyIgeG1sbnM9Imh0dHA6Ly93d3cudzMub3JnLzIwMDAvc3ZnIiB4bWxuczpzb2RpcG9kaT0iaHR0cDovL3NvZGlwb2RpLnNvdXJjZWZvcmdlLm5ldC9EVEQvc29kaXBvZGktMC5kdGQiIHhtbG5zOmlua3NjYXBlPSJodHRwOi8vd3d3Lmlua3NjYXBlLm9yZy9uYW1lc3BhY2VzL2lua3NjYXBlIiB2ZXJzaW9uPSIxLjEiIGlkPSJzdmc0OTI1OSIgaW5rc2NhcGU6dmVyc2lvbj0iMC45Mi4zICgyNDA1NTQ2LCAyMDE4LTAzLTExKSIgc29kaXBvZGk6ZG9jbmFtZT0iYXBwbGljYXRpb25fZ2F0ZXdheS5zdmciIHg9IjBweCIgeT0iMHB4IiB2aWV3Qm94PSIwIDAgMTAwLjMxIDEwMC4xMSIgeG1sOnNwYWNlPSJwcmVzZXJ2ZSIgd2lkdGg9IjEwMC4zMSIgaGVpZ2h0PSIxMDAuMTEiPjxtZXRhZGF0YSBpZD0ibWV0YWRhdGExNjMzNSI+PHJkZjpSREY+PGNjOldvcmsgcmRmOmFib3V0PSIiPjxkYzpmb3JtYXQ+aW1hZ2Uvc3ZnK3htbDwvZGM6Zm9ybWF0PjxkYzp0eXBlIHJkZjpyZXNvdXJjZT0iaHR0cDovL3B1cmwub3JnL2RjL2RjbWl0eXBlL1N0aWxsSW1hZ2UiLz48ZGM6dGl0bGUvPjwvY2M6V29yaz48L3JkZjpSREY+PC9tZXRhZGF0YT48ZGVmcyBpZD0iZGVmczE2MzMzIi8+JiN4YTs8ZmlsdGVyIGlkPSJmaWx0ZXJfMiI+JiN4YTsJPGZlR2F1c3NpYW5CbHVyIGlkPSJmZUdhdXNzaWFuQmx1cjQ5MTg0IiBzdGREZXZpYXRpb249IjIiLz4mI3hhOzwvZmlsdGVyPiYjeGE7PHNvZGlwb2RpOm5hbWVkdmlldyBib3JkZXJjb2xvcj0iIzY2NjY2NiIgYm9yZGVyb3BhY2l0eT0iMSIgZml0LW1hcmdpbi1ib3R0b209IjAiIGZpdC1tYXJnaW4tbGVmdD0iMCIgZml0LW1hcmdpbi1yaWdodD0iMCIgZml0LW1hcmdpbi10b3A9IjAiIGdyaWR0b2xlcmFuY2U9IjEwIiBndWlkZXRvbGVyYW5jZT0iMTAiIGlkPSJuYW1lZHZpZXc0OTI2MSIgaW5rc2NhcGU6Y3VycmVudC1sYXllcj0ic3ZnNDkyNTkiIGlua3NjYXBlOmN4PSIzNy42OTE3NzEiIGlua3NjYXBlOmN5PSI0OC40MTY5MjYiIGlua3NjYXBlOnBhZ2VvcGFjaXR5PSIwIiBpbmtzY2FwZTpwYWdlc2hhZG93PSIyIiBpbmtzY2FwZTp3aW5kb3ctaGVpZ2h0PSIxMDE3IiBpbmtzY2FwZTp3aW5kb3ctbWF4aW1pemVkPSIxIiBpbmtzY2FwZTp3aW5kb3ctd2lkdGg9IjE5MjAiIGlua3NjYXBlOndpbmRvdy14PSItOCIgaW5rc2NhcGU6d2luZG93LXk9Ii04IiBpbmtzY2FwZTp6b29tPSI1LjIxOTMxOTgiIG9iamVjdHRvbGVyYW5jZT0iMTAiIHBhZ2Vjb2xvcj0iI2ZmZmZmZiIgc2hvd2dyaWQ9ImZhbHNlIj4mI3hhOwk8L3NvZGlwb2RpOm5hbWVkdmlldz4mI3hhOyYjeGE7PHBhdGggaWQ9InBhdGg0OTE5NyIgaW5rc2NhcGU6Y29ubmVjdG9yLWN1cnZhdHVyZT0iMCIgc3R5bGU9ImZpbGw6IzdmYmEwMCIgZD0ibSA1MC4wNSwxMDAuMTEgYyAtMi40LDAgLTQuOCwtMS4wMSAtNi42LC0yLjgxIEwgMi44LDU2LjY2IEMgMSw1NC44NiAwLDUyLjQ2IDAsNTAuMDUgYyAwLC0yLjQgMSwtNC44IDIuOCwtNi42IEwgNDMuNDUsMi44IEMgNDUuMjUsMSA0Ny42NSwwIDUwLjA1LDAgYyAyLjQxLDAgNC44MSwxIDYuNjEsMi44IEwgOTcuNSw0My42NSBjIDEuOCwxLjggMi44MSw0IDIuODEsNi42IDAsMi40MSAtMS4wMSw0LjgxIC0yLjgxLDYuNjEgTCA1Ni42Niw5Ny4zIGMgLTEuOCwxLjggLTQuMiwyLjgxIC02LjYxLDIuODEgeiIvPiYjeGE7JiN4YTs8cGF0aCBpZD0icGF0aDQ5MjA1IiBpbmtzY2FwZTpjb25uZWN0b3ItY3VydmF0dXJlPSIwIiBzdHlsZT0iZmlsbDojZmZmZmZmIiBkPSJtIDU5LjU0LDM3LjIgYyAtMi44LDIuMTQgLTYuMDksMy4xOSAtOS4zNywzLjE5IC00LjY0LDAgLTkuMjQsLTIuMDkgLTEyLjI3LC02LjA2IC01LjE5LC02Ljc3IC0zLjkxLC0xNi40NiAyLjg3LC0yMS42NSAyLjgsLTIuMTUgNi4xLC0zLjE4IDkuMzcsLTMuMTggNC42NSwwIDkuMjQsMi4wOSAxMi4yOCw2LjA2IDUuMTgsNi43OCAzLjg5LDE2LjQ2IC0yLjg4LDIxLjY0IHoiLz4mI3hhOyYjeGE7PHBhdGggaWQ9InBhdGg0OTIxMyIgaW5rc2NhcGU6Y29ubmVjdG9yLWN1cnZhdHVyZT0iMCIgc3R5bGU9ImZpbGw6I2ZmZmZmZjtmaWxsLW9wYWNpdHk6MC4xNSIgZD0iTSA1Ni42NiwyLjggQyA1NC44NiwxIDUyLjQ2LDAgNTAuMDUsMCBjIC0yLjQsMCAtNC44LDEgLTYuNiwyLjggTCAyLjgsNDMuNDUgQyAxLDQ1LjI1IDAsNDcuNjUgMCw1MC4wNSBjIDAsMi40MSAxLDQuODEgMi44LDYuNjEgTCAyNS44Myw3OS42OSA2OS4yNywxNS40MiBaIi8+JiN4YTsmI3hhOzxwYXRoIGlkPSJwYXRoNDkyMjEiIGlua3NjYXBlOmNvbm5lY3Rvci1jdXJ2YXR1cmU9IjAiIHN0eWxlPSJmaWxsOiNmZmZmZmYiIGQ9Ik0gNTAuMDUsOTEuMyA2My4yNyw3OC4wOCBIIDUzLjg2IFYgMzguMzQgaCAtNy44MSB2IDM5Ljc0IGggLTkuMjEgeiIvPiYjeGE7JiN4YTs8cGF0aCBpZD0icGF0aDQ5MjI5IiBpbmtzY2FwZTpjb25uZWN0b3ItY3VydmF0dXJlPSIwIiBzdHlsZT0iZmlsbDojZmZmZmZmIiBkPSJNIDc4Ljc0LDY3LjA0IFYgNDguMzUgbCAtNi41MSw2LjUxIC0xNi45MSwtMTYuOTEgLTUuNjYsNS42NyAxNi45MSwxNi45IC02LjUyLDYuNTIgeiIvPiYjeGE7JiN4YTs8cGF0aCBpZD0icGF0aDQ5MjM3IiBpbmtzY2FwZTpjb25uZWN0b3ItY3VydmF0dXJlPSIwIiBzdHlsZT0iZmlsbDojZmZmZmZmIiBkPSJNIDIxLjM5LDY3LjExIEggNDAuMDggTCAzMy41Niw2MC41OSA1MC45NSw0My4yMSA0NS4yOCwzNy41NSAyNy45LDU0LjkzIDIxLjM5LDQ4LjQyIFoiLz4mI3hhOyYjeGE7PHBhdGggaWQ9InBhdGg0OTI0NSIgaW5rc2NhcGU6Y29ubmVjdG9yLWN1cnZhdHVyZT0iMCIgc3R5bGU9ImZpbGw6IzU5YjRkOSIgZD0ibSA1OC4yOSwzNS41OCBjIC0yLjQyLDEuODUgLTUuMjgsMi43NiAtOC4xMiwyLjc2IC00LjAzLDAgLTguMDEsLTEuODEgLTEwLjY0LC01LjI2IC00LjUsLTUuODcgLTMuMzksLTE0LjI3IDIuNDksLTE4Ljc3IDIuNDMsLTEuODYgNS4yOSwtMi43NSA4LjEyLC0yLjc1IDQuMDMsMCA4LjAyLDEuOCAxMC42NSw1LjI1IDQuNSw1Ljg3IDMuMzgsMTQuMjcgLTIuNSwxOC43NyB6Ii8+JiN4YTsmI3hhOzxwYXRoIGlkPSJwYXRoNDkyNTMiIGlua3NjYXBlOmNvbm5lY3Rvci1jdXJ2YXR1cmU9IjAiIHN0eWxlPSJmaWxsOiNmZmZmZmYiIGQ9Im0gNTUuODMsMjcuMyBjIDAuOTgsMS4yNyAyLjc4LDEuNDkgNC4wNCwwLjU0IDAuMDcsLTAuMDUgMC4xMiwtMC4xMiAwLjE4LC0wLjE3IDEuMjksMC45MSAyLjE4LDEuNTEgMi42OSwxLjg1IDAuMTUsLTAuMzkgMC4yNSwtMC43NiAwLjM2LC0xLjE1IC0wLjUzLC0wLjM5IC0xLjI2LC0wLjk1IC0yLjMsLTEuNzkgMC4zNCwtMC45IDAuMjMsLTEuOTUgLTAuMzksLTIuNzggLTAuOSwtMS4xNSAtMi40OCwtMS40NSAtMy43MiwtMC43MyAtMS4zNiwtMS4yMyAtMi44NiwtMi42MyAtNC40NCwtNC4yIDQuOTEsLTIuNjQgOC40LC0yLjI1IDguNCwtMi4yNSAtMC41OSwtMC43NSAtMS4yNCwtMS40IC0xLjkzLC0xLjk4IC0yLjA3LC0wLjMyIC01LjI5LC0wLjI5IC04Ljk3LDEuNjcgViAxNi4zIGMgLTEuMjIsLTEuMjggLTIuNDcsLTIuNjUgLTMuNzQsLTQuMTMgLTAuNiwwLjIgLTEuMiwwLjQ0IC0xLjc3LDAuNzMgMC45MywxLjUzIDIuMiwzLjA3IDMuNjIsNC41OCAwLDAuMDEgMCwwLjAxIDAuMDEsMC4wMSAtMS4xOSwwLjgzIC0yLjUxLDEuOTQgLTMuNzIsMy4yMyAtMC4xNiwwLjE2IC0wLjMxLDAuMzMgLTAuNDUsMC40OSAtMC43MywtMC4xNSAtMS41LC0wLjEgLTIuMjEsMC4xNSAtMS4yMSwtMi42MSAtMS4xMiwtNC43MSAtMC45MiwtNS44IC0wLjUzLDAuNTUgLTEuMDIsMS4xMyAtMS40NSwxLjc1IC0wLjMxLDEuMyAtMC40LDMuMTYgMC41Myw1LjQxIC0xLjA4LDEuNDIgLTEuMTMsMy40MiAwLDQuOSAwLjEsMC4xMiAwLjIsMC4yNCAwLjMsMC4zNSAtMC40OSwxLjY4IC0wLjcxLDMuMyAtMC43OCw0LjY5IDAuMTIsMC4xNyAwLjEyLDAuMzEgMC4yNSwwLjQ4IDAuNjQsMC44MyAxLjQ1LDEuNTIgMi4yMywyLjE1IC0wLjEsLTEuNDcgMC4wMSwtMy42NSAwLjkyLC02LjA5IDAuNjMsMC4wNCAxLjI3LC0wLjA2IDEuODYsLTAuMzEgMC4zNSwwLjMxIDAuNywwLjYxIDEuMDksMC45MiAxLjMxLDEuMDQgMi42MiwxLjg1IDMuOSwyLjQ5IC0wLjA2LDAuNjUgMC4xLDEuMzIgMC41MiwxLjg4IDAuOSwxLjE3IDIuNTcsMS4zOSAzLjc0LDAuNDkgMC4yNCwtMC4xOCAwLjQzLC0wLjQxIDAuNTksLTAuNjUgMi4wOSwwLjQ3IDMuOTEsMC41NSA1LjI2LDAuNTUgMC4yLDAgMS4xNiwtMS4zMSAxLjcxLC0yLjExIC0wLjgyLDAuMTcgLTMuMjYsMC41IC02LjU5LC0wLjQ1IC0wLjA4LC0wLjM4IC0wLjIzLC0wLjc0IC0wLjQ4LC0xLjA3IC0wLjg0LC0xLjEgLTIuMzksLTEuMzUgLTMuNTQsLTAuNiAtMS4xNiwtMC42MyAtMi4zNywtMS40MiAtMy42MiwtMi40MSAtMC4yNiwtMC4yIC0wLjUsLTAuNCAtMC43MywtMC42IDAuNzYsLTEuMiAwLjg0LC0yLjc0IDAuMTcsLTQuMDQgMC4xNSwtMC4xNSAwLjMsLTAuMzEgMC40NiwtMC40NiAxLjI0LC0xLjE2IDIuNDEsLTIuMDggMy41LC0yLjgyIC0wLjA1LC0wLjA0IC0wLjA5LC0wLjA5IC0wLjEzLC0wLjEzIDAuMDQsMC4wNCAwLjA4LDAuMDggMC4xMywwLjEyIHYgMCBjIDEuNjcsMS41NSAzLjQ0LDMuMDIgNS4xMiw0LjMzIC0wLjQ0LDAuOTQgLTAuMzcsMi4wOCAwLjMsMi45NyB6Ii8+JiN4YTs8L3N2Zz4=;" parent="1" vertex="1">
          <mxGeometry x="361" y="324" width="50" height="50" as="geometry" />
        </mxCell>
        <mxCell id="NSxlFpYSFV0zkJ1WkVVA-16" value="" style="edgeStyle=orthogonalEdgeStyle;rounded=0;orthogonalLoop=1;jettySize=auto;html=1;flowAnimation=1;" parent="1" source="NSxlFpYSFV0zkJ1WkVVA-11" target="NSxlFpYSFV0zkJ1WkVVA-14" edge="1">
          <mxGeometry relative="1" as="geometry" />
        </mxCell>
        <mxCell id="NSxlFpYSFV0zkJ1WkVVA-34" value="/create&lt;div&gt;/update&lt;/div&gt;" style="edgeLabel;html=1;align=center;verticalAlign=middle;resizable=0;points=[];" parent="NSxlFpYSFV0zkJ1WkVVA-16" vertex="1" connectable="0">
          <mxGeometry x="-0.4074" y="2" relative="1" as="geometry">
            <mxPoint y="12" as="offset" />
          </mxGeometry>
        </mxCell>
        <mxCell id="pvK6tCkYXhJ5_Ju_K60p-11" value="" style="edgeStyle=orthogonalEdgeStyle;rounded=0;orthogonalLoop=1;jettySize=auto;html=1;flowAnimation=1;" edge="1" parent="1" source="NSxlFpYSFV0zkJ1WkVVA-11" target="pvK6tCkYXhJ5_Ju_K60p-10">
          <mxGeometry relative="1" as="geometry" />
        </mxCell>
        <mxCell id="pvK6tCkYXhJ5_Ju_K60p-72" value="" style="edgeStyle=orthogonalEdgeStyle;rounded=0;orthogonalLoop=1;jettySize=auto;html=1;" edge="1" parent="1" source="NSxlFpYSFV0zkJ1WkVVA-11" target="pvK6tCkYXhJ5_Ju_K60p-71">
          <mxGeometry relative="1" as="geometry" />
        </mxCell>
        <mxCell id="NSxlFpYSFV0zkJ1WkVVA-11" value="Command" style="shape=rect;fillColor=#198038;aspect=fixed;resizable=0;labelPosition=center;verticalLabelPosition=top;align=center;verticalAlign=bottom;strokeColor=none;fontSize=14;" parent="1" vertex="1">
          <mxGeometry x="512" y="190" width="48" height="48" as="geometry" />
        </mxCell>
        <mxCell id="NSxlFpYSFV0zkJ1WkVVA-12" value="" style="fillColor=#ffffff;strokeColor=none;dashed=0;outlineConnect=0;html=1;labelPosition=center;verticalLabelPosition=bottom;verticalAlign=top;part=1;movable=0;resizable=0;rotatable=0;shape=mxgraph.ibm_cloud.logo--openshift" parent="NSxlFpYSFV0zkJ1WkVVA-11" vertex="1">
          <mxGeometry width="24" height="24" relative="1" as="geometry">
            <mxPoint x="12" y="12" as="offset" />
          </mxGeometry>
        </mxCell>
        <mxCell id="NSxlFpYSFV0zkJ1WkVVA-14" value="cache / ttl: 60 min" style="image;sketch=0;aspect=fixed;html=1;points=[];align=center;fontSize=12;image=img/lib/mscae/Cache_including_Redis.svg;spacing=7;" parent="1" vertex="1">
          <mxGeometry x="512" y="318" width="50" height="50" as="geometry" />
        </mxCell>
        <mxCell id="pvK6tCkYXhJ5_Ju_K60p-18" value="" style="edgeStyle=orthogonalEdgeStyle;rounded=0;orthogonalLoop=1;jettySize=auto;html=1;dashed=1;flowAnimation=1;startArrow=classic;startFill=1;" edge="1" parent="1" source="NSxlFpYSFV0zkJ1WkVVA-17" target="pvK6tCkYXhJ5_Ju_K60p-17">
          <mxGeometry relative="1" as="geometry" />
        </mxCell>
        <mxCell id="NSxlFpYSFV0zkJ1WkVVA-17" value="SQL Server" style="shape=image;verticalLabelPosition=bottom;labelBackgroundColor=#ffffff;verticalAlign=top;aspect=fixed;imageAspect=0;image=data:image/svg+xml,PHN2ZyB4bWxuczpkYz0iaHR0cDovL3B1cmwub3JnL2RjL2VsZW1lbnRzLzEuMS8iIHhtbG5zOmNjPSJodHRwOi8vY3JlYXRpdmVjb21tb25zLm9yZy9ucyMiIHhtbG5zOnJkZj0iaHR0cDovL3d3dy53My5vcmcvMTk5OS8wMi8yMi1yZGYtc3ludGF4LW5zIyIgeG1sbnM6c3ZnPSJodHRwOi8vd3d3LnczLm9yZy8yMDAwL3N2ZyIgeG1sbnM9Imh0dHA6Ly93d3cudzMub3JnLzIwMDAvc3ZnIiB4bWxuczpzb2RpcG9kaT0iaHR0cDovL3NvZGlwb2RpLnNvdXJjZWZvcmdlLm5ldC9EVEQvc29kaXBvZGktMC5kdGQiIHhtbG5zOmlua3NjYXBlPSJodHRwOi8vd3d3Lmlua3NjYXBlLm9yZy9uYW1lc3BhY2VzL2lua3NjYXBlIiB2ZXJzaW9uPSIxLjEiIGlkPSJzdmc5NzA4NCIgaW5rc2NhcGU6dmVyc2lvbj0iMC45Mi4zICgyNDA1NTQ2LCAyMDE4LTAzLTExKSIgc29kaXBvZGk6ZG9jbmFtZT0ic3FsX2RhdGFiYXNlLnN2ZyIgeD0iMHB4IiB5PSIwcHgiIHZpZXdCb3g9IjAgMCA3NS41MiAxMDAuMTEiIHhtbDpzcGFjZT0icHJlc2VydmUiIHdpZHRoPSI3NS41MTk5OTciIGhlaWdodD0iMTAwLjExIj48bWV0YWRhdGEgaWQ9Im1ldGFkYXRhMTcyNiI+PHJkZjpSREY+PGNjOldvcmsgcmRmOmFib3V0PSIiPjxkYzpmb3JtYXQ+aW1hZ2Uvc3ZnK3htbDwvZGM6Zm9ybWF0PjxkYzp0eXBlIHJkZjpyZXNvdXJjZT0iaHR0cDovL3B1cmwub3JnL2RjL2RjbWl0eXBlL1N0aWxsSW1hZ2UiLz48ZGM6dGl0bGUvPjwvY2M6V29yaz48L3JkZjpSREY+PC9tZXRhZGF0YT48ZGVmcyBpZD0iZGVmczE3MjQiPiYjeGE7CSYjeGE7JiN4YTsJJiN4YTsmI3hhOwkmI3hhOyYjeGE7CSYjeGE7JiN4YTsJJiN4YTsmI3hhOwkmI3hhOyYjeGE7CSYjeGE7JiN4YTsJJiN4YTsmI3hhOwkmI3hhOyYjeGE7CQkmI3hhOwkmI3hhOwkJJiN4YTsJJiN4YTsJCSYjeGE7CSYjeGE7CQkmI3hhOwkmI3hhOwkJJiN4YTsJJiN4YTsJCSYjeGE7CSYjeGE7CQkmI3hhOwkmI3hhOwkJJiN4YTsJPC9kZWZzPiYjeGE7PGZpbHRlciBpZD0iZmlsdGVyXzIiPiYjeGE7CTxmZUdhdXNzaWFuQmx1ciBpZD0iZmVHYXVzc2lhbkJsdXI5NzAwMSIgc3RkRGV2aWF0aW9uPSIyIi8+JiN4YTs8L2ZpbHRlcj4mI3hhOzxzb2RpcG9kaTpuYW1lZHZpZXcgYm9yZGVyY29sb3I9IiM2NjY2NjYiIGJvcmRlcm9wYWNpdHk9IjEiIGZpdC1tYXJnaW4tYm90dG9tPSIwIiBmaXQtbWFyZ2luLWxlZnQ9IjAiIGZpdC1tYXJnaW4tcmlnaHQ9IjAiIGZpdC1tYXJnaW4tdG9wPSIwIiBncmlkdG9sZXJhbmNlPSIxMCIgZ3VpZGV0b2xlcmFuY2U9IjEwIiBpZD0ibmFtZWR2aWV3OTcwODYiIGlua3NjYXBlOmN1cnJlbnQtbGF5ZXI9InN2Zzk3MDg0IiBpbmtzY2FwZTpjeD0iLTQ2LjkyMDI2NSIgaW5rc2NhcGU6Y3k9IjM4LjczMTY2NiIgaW5rc2NhcGU6cGFnZW9wYWNpdHk9IjAiIGlua3NjYXBlOnBhZ2VzaGFkb3c9IjIiIGlua3NjYXBlOndpbmRvdy1oZWlnaHQ9IjEwMTciIGlua3NjYXBlOndpbmRvdy1tYXhpbWl6ZWQ9IjEiIGlua3NjYXBlOndpbmRvdy13aWR0aD0iMTkyMCIgaW5rc2NhcGU6d2luZG93LXg9Ii04IiBpbmtzY2FwZTp3aW5kb3cteT0iLTgiIGlua3NjYXBlOnpvb209IjUuMjE5MzE5NyIgb2JqZWN0dG9sZXJhbmNlPSIxMCIgcGFnZWNvbG9yPSIjZmZmZmZmIiBzaG93Z3JpZD0iZmFsc2UiPiYjeGE7CTwvc29kaXBvZGk6bmFtZWR2aWV3PiYjeGE7JiN4YTs8cGF0aCBpZD0icGF0aDk3MDE0IiBpbmtzY2FwZTpjb25uZWN0b3ItY3VydmF0dXJlPSIwIiBzdHlsZT0iZmlsbDojMDA3MmM2IiBkPSJtIDAsMTMuNjggdiA3Mi43NSBjIDAsNy41NSAxNi45MSwxMy42OCAzNy43NiwxMy42OCBWIDEzLjY4IGMgMCwwIC0zNy43NiwwIC0zNy43NiwwIHoiLz4mI3hhOyYjeGE7PHBhdGggaWQ9InBhdGg5NzAyMiIgaW5rc2NhcGU6Y29ubmVjdG9yLWN1cnZhdHVyZT0iMCIgc3R5bGU9ImZpbGw6IzAwNzJjNiIgZD0ibSAzNy4yNCwxMDAuMTEgaCAwLjUyIGMgMjAuODUsMCAzNy43NiwtNi4xMyAzNy43NiwtMTMuNjggViAxMy42OCBIIDM3LjI0IFoiLz4mI3hhOyYjeGE7PHBhdGggaWQ9InBhdGg5NzAzMCIgaW5rc2NhcGU6Y29ubmVjdG9yLWN1cnZhdHVyZT0iMCIgc3R5bGU9ImZpbGw6I2ZmZmZmZjtmaWxsLW9wYWNpdHk6MC4xNSIgZD0ibSAzNy4yNCwxMDAuMTEgaCAwLjUyIGMgMjAuODUsMCAzNy43NiwtNi4xMyAzNy43NiwtMTMuNjggViAxMy42OCBIIDM3LjI0IFoiLz4mI3hhOyYjeGE7PHBhdGggaWQ9InBhdGg5NzAzOCIgaW5rc2NhcGU6Y29ubmVjdG9yLWN1cnZhdHVyZT0iMCIgc3R5bGU9ImZpbGw6I2ZmZmZmZiIgZD0ibSA3NS41MiwxMy42OCBjIDAsNy41NSAtMTYuOTEsMTMuNjggLTM3Ljc2LDEzLjY4IEMgMTYuOTEsMjcuMzYgMCwyMS4yMyAwLDEzLjY4IDAsNi4xMyAxNi45MSwwIDM3Ljc2LDAgNTguNjEsMCA3NS41Miw2LjEzIDc1LjUyLDEzLjY4IFoiLz4mI3hhOyYjeGE7PHBhdGggaWQ9InBhdGg5NzA0NiIgaW5rc2NhcGU6Y29ubmVjdG9yLWN1cnZhdHVyZT0iMCIgc3R5bGU9ImZpbGw6IzdmYmEwMCIgZD0ibSA2Ny44LDEyLjg5IGMgMCw0Ljk5IC0xMy40NSw5LjAzIC0zMC4wNCw5LjAzIC0xNi41OSwwIC0zMC4wNCwtNC4wNCAtMzAuMDQsLTkuMDMgMCwtNC45OCAxMy40NSwtOS4wMiAzMC4wNCwtOS4wMiAxNi41OSwwIDMwLjA0LDQuMDQgMzAuMDQsOS4wMiB6Ii8+JiN4YTsmI3hhOzxwYXRoIGlkPSJwYXRoOTcwNTQiIGlua3NjYXBlOmNvbm5lY3Rvci1jdXJ2YXR1cmU9IjAiIHN0eWxlPSJmaWxsOiNiOGQ0MzIiIGQ9Ik0gNjEuNTEsMTguNDEgQyA2NS40NCwxNi44OCA2Ny44LDE0Ljk3IDY3LjgsMTIuOSA2Ny44LDcuOTEgNTQuMzUsMy44NyAzNy43NiwzLjg3IDIxLjE3LDMuODcgNy43Miw3LjkxIDcuNzIsMTIuOSBjIDAsMi4wNyAyLjM2LDMuOTggNi4zLDUuNTEgNS40OSwtMi4xNCAxNC4wNywtMy41MSAyMy43NCwtMy41MSA5LjY3LDAgMTguMjUsMS4zNyAyMy43NSwzLjUxIHoiLz4mI3hhOyYjeGE7PHBhdGggaWQ9InBhdGg5NzA2MiIgaW5rc2NhcGU6Y29ubmVjdG9yLWN1cnZhdHVyZT0iMCIgc3R5bGU9ImZpbGw6I2ZmZmZmZiIgZD0ibSAyNS43Nyw2NC4xOCBjIDAsMi4yNiAtMC44Miw0LjAxIC0yLjQ2LDUuMjUgLTEuNjQsMS4yNCAtMy45LDEuODcgLTYuNzksMS44NyAtMi40NiwwIC00LjUyLC0wLjQ1IC02LjE3LC0xLjMzIHYgLTUuMzIgYyAxLjksMS42MSA0LDIuNDIgNi4zLDIuNDIgMS4xLDAgMS45NiwtMC4yMiAyLjU3LC0wLjY2IDAuNiwtMC40NCAwLjksLTEuMDMgMC45LC0xLjc2IDAsLTAuNzIgLTAuMjksLTEuMzUgLTAuODcsLTEuODggLTAuNTgsLTAuNTMgLTEuNzcsLTEuMjIgLTMuNTUsLTIuMDYgLTMuNjMsLTEuNzEgLTUuNDUsLTQuMDQgLTUuNDUsLTYuOTggMCwtMi4xNCAwLjc5LC0zLjg1IDIuMzgsLTUuMTQgMS41OCwtMS4yOSAzLjY5LC0xLjk0IDYuMzEsLTEuOTQgMi4zMywwIDQuMjUsMC4zMSA1Ljc5LDAuOTEgdiA0Ljk3IGMgLTEuNjEsLTEuMTEgLTMuNDQsLTEuNjYgLTUuNDksLTEuNjYgLTEuMDMsMCAtMS44NCwwLjIyIC0yLjQ0LDAuNjYgLTAuNiwwLjQzIC0wLjksMS4wMiAtMC45LDEuNzUgMCwwLjc1IDAuMjQsMS4zNyAwLjczLDEuODUgMC40OCwwLjQ4IDEuNDcsMS4wOCAyLjk2LDEuNzkgMi4yMywxLjA1IDMuODIsMi4xMiA0Ljc2LDMuMjEgMC45NSwxLjA4IDEuNDIsMi40NCAxLjQyLDQuMDUgeiIvPiYjeGE7JiN4YTs8cGF0aCBpZD0icGF0aDk3MDcwIiBpbmtzY2FwZTpjb25uZWN0b3ItY3VydmF0dXJlPSIwIiBzdHlsZT0iZmlsbDojZmZmZmZmIiBkPSJtIDUxLjQxLDU4Ljc5IGMgMCwyLjgxIC0wLjY0LDUuMjQgLTEuOTEsNy4zIC0xLjI4LDIuMDYgLTMuMDcsMy41IC01LjM5LDQuMzQgbCA2LjkyLDYuNCBIIDQ0LjA1IEwgMzkuMTEsNzEuMjkgQyAzNyw3MS4yMSAzNS4wOSw3MC42NSAzMy4zOSw2OS42MSBjIC0xLjcsLTEuMDQgLTMuMDIsLTIuNDcgLTMuOTQsLTQuMjggLTAuOTMsLTEuODEgLTEuMzksLTMuODMgLTEuMzksLTYuMDUgMCwtMi40NyAwLjUsLTQuNjggMS41LC02LjYxIDEuMDEsLTEuOTMgMi40MSwtMy40MiA0LjIzLC00LjQ2IDEuODIsLTEuMDQgMy45LC0xLjU2IDYuMjUsLTEuNTYgMi4xOSwwIDQuMTYsMC41IDUuODksMS41MSAxLjczLDEuMDEgMy4wOCwyLjQ0IDQuMDQsNC4zIDAuOTYsMS44NiAxLjQ0LDMuOTcgMS40NCw2LjMzIHogbSAtNS42NSwwLjMgYyAwLC0yLjQxIC0wLjUyLC00LjMyIC0xLjU4LC01LjcyIC0xLjA1LC0xLjQgLTIuNDksLTIuMSAtNC4zMiwtMi4xIC0xLjg2LDAgLTMuMzUsMC43IC00LjQ3LDIuMSAtMS4xMiwxLjQxIC0xLjY4LDMuMjggLTEuNjgsNS42MiAwLDIuMzMgMC41NSw0LjE5IDEuNjUsNS41OCAxLjA5LDEuMzkgMi41NSwyLjA4IDQuMzYsMi4wOCAxLjg2LDAgMy4zMiwtMC42NyA0LjQxLC0yLjAyIDEuMDksLTEuMzQgMS42MywtMy4xOSAxLjYzLC01LjU0IHoiLz4mI3hhOyYjeGE7PHBhdGggaWQ9InBhdGg5NzA3OCIgaW5rc2NhcGU6Y29ubmVjdG9yLWN1cnZhdHVyZT0iMCIgc3R5bGU9ImZpbGw6I2ZmZmZmZiIgZD0iTSA2OS41NCw3MC44OCBIIDU1LjM1IFYgNDcuMDUgaCA1LjM3IHYgMTkuNDcgaCA4LjgyIHoiLz4mI3hhOzwvc3ZnPg==;" parent="1" vertex="1">
          <mxGeometry x="941" y="215.84" width="41" height="53" as="geometry" />
        </mxCell>
        <mxCell id="NSxlFpYSFV0zkJ1WkVVA-43" value="" style="edgeStyle=orthogonalEdgeStyle;rounded=0;orthogonalLoop=1;jettySize=auto;html=1;flowAnimation=1;startArrow=classic;startFill=1;" parent="1" source="NSxlFpYSFV0zkJ1WkVVA-22" target="NSxlFpYSFV0zkJ1WkVVA-14" edge="1">
          <mxGeometry relative="1" as="geometry" />
        </mxCell>
        <mxCell id="NSxlFpYSFV0zkJ1WkVVA-44" value="if exist&lt;div&gt;get cache date&lt;/div&gt;" style="edgeLabel;html=1;align=center;verticalAlign=middle;resizable=0;points=[];" parent="NSxlFpYSFV0zkJ1WkVVA-43" vertex="1" connectable="0">
          <mxGeometry x="0.0976" y="-2" relative="1" as="geometry">
            <mxPoint y="18" as="offset" />
          </mxGeometry>
        </mxCell>
        <mxCell id="pvK6tCkYXhJ5_Ju_K60p-53" value="" style="edgeStyle=orthogonalEdgeStyle;rounded=0;orthogonalLoop=1;jettySize=auto;html=1;flowAnimation=1;" edge="1" parent="1" source="NSxlFpYSFV0zkJ1WkVVA-22">
          <mxGeometry relative="1" as="geometry">
            <mxPoint x="537.0999999999999" y="560" as="targetPoint" />
          </mxGeometry>
        </mxCell>
        <mxCell id="NSxlFpYSFV0zkJ1WkVVA-22" value="Query" style="shape=rect;fillColor=#198038;aspect=fixed;resizable=0;labelPosition=center;verticalLabelPosition=bottom;align=center;verticalAlign=top;strokeColor=none;fontSize=14;" parent="1" vertex="1">
          <mxGeometry x="513" y="450" width="48" height="48" as="geometry" />
        </mxCell>
        <mxCell id="NSxlFpYSFV0zkJ1WkVVA-23" value="" style="fillColor=#ffffff;strokeColor=none;dashed=0;outlineConnect=0;html=1;labelPosition=center;verticalLabelPosition=bottom;verticalAlign=top;part=1;movable=0;resizable=0;rotatable=0;shape=mxgraph.ibm_cloud.logo--openshift" parent="NSxlFpYSFV0zkJ1WkVVA-22" vertex="1">
          <mxGeometry width="24" height="24" relative="1" as="geometry">
            <mxPoint x="12" y="12" as="offset" />
          </mxGeometry>
        </mxCell>
        <mxCell id="pvK6tCkYXhJ5_Ju_K60p-33" style="edgeStyle=orthogonalEdgeStyle;rounded=0;orthogonalLoop=1;jettySize=auto;html=1;flowAnimation=1;" edge="1" parent="1" source="NSxlFpYSFV0zkJ1WkVVA-48" target="pvK6tCkYXhJ5_Ju_K60p-29">
          <mxGeometry relative="1" as="geometry" />
        </mxCell>
        <mxCell id="pvK6tCkYXhJ5_Ju_K60p-48" value="get data from&amp;nbsp;&lt;div&gt;read db&lt;/div&gt;" style="edgeLabel;html=1;align=center;verticalAlign=middle;resizable=0;points=[];" vertex="1" connectable="0" parent="pvK6tCkYXhJ5_Ju_K60p-33">
          <mxGeometry x="-0.5604" y="3" relative="1" as="geometry">
            <mxPoint as="offset" />
          </mxGeometry>
        </mxCell>
        <mxCell id="NSxlFpYSFV0zkJ1WkVVA-48" value="not&amp;nbsp;&lt;div&gt;exist?&lt;/div&gt;" style="strokeWidth=2;html=1;shape=mxgraph.flowchart.decision;whiteSpace=wrap;" parent="1" vertex="1">
          <mxGeometry x="710" y="444" width="70" height="60" as="geometry" />
        </mxCell>
        <mxCell id="NSxlFpYSFV0zkJ1WkVVA-49" style="edgeStyle=orthogonalEdgeStyle;rounded=0;orthogonalLoop=1;jettySize=auto;html=1;curved=1;startArrow=none;startFill=0;endArrow=classic;endFill=1;" parent="1" source="NSxlFpYSFV0zkJ1WkVVA-48" target="NSxlFpYSFV0zkJ1WkVVA-14" edge="1">
          <mxGeometry relative="1" as="geometry">
            <Array as="points">
              <mxPoint x="745" y="440" />
              <mxPoint x="641" y="440" />
              <mxPoint x="641" y="367" />
            </Array>
            <mxPoint x="571" y="370" as="targetPoint" />
          </mxGeometry>
        </mxCell>
        <mxCell id="NSxlFpYSFV0zkJ1WkVVA-50" value="create new&amp;nbsp;&lt;div&gt;d&lt;span style=&quot;background-color: light-dark(#ffffff, var(--ge-dark-color, #121212)); color: light-dark(rgb(0, 0, 0), rgb(255, 255, 255));&quot;&gt;ate state&lt;/span&gt;&lt;/div&gt;" style="edgeLabel;html=1;align=center;verticalAlign=middle;resizable=0;points=[];" parent="NSxlFpYSFV0zkJ1WkVVA-49" vertex="1" connectable="0">
          <mxGeometry x="0.2289" y="17" relative="1" as="geometry">
            <mxPoint x="37" y="42" as="offset" />
          </mxGeometry>
        </mxCell>
        <mxCell id="NSxlFpYSFV0zkJ1WkVVA-51" value="Azure CQRS Accelerated Data AccessAzure CQRS Accelerated Data Access" style="text;strokeColor=none;align=center;fillColor=none;html=1;verticalAlign=middle;whiteSpace=wrap;rounded=0;fontSize=17;" parent="1" vertex="1">
          <mxGeometry x="7" y="20" width="1133" height="30" as="geometry" />
        </mxCell>
        <mxCell id="pvK6tCkYXhJ5_Ju_K60p-13" value="" style="edgeStyle=orthogonalEdgeStyle;rounded=0;orthogonalLoop=1;jettySize=auto;html=1;startArrow=classic;startFill=0;dashed=1;endArrow=none;flowAnimation=1;" edge="1" parent="1" source="pvK6tCkYXhJ5_Ju_K60p-10" target="pvK6tCkYXhJ5_Ju_K60p-12">
          <mxGeometry relative="1" as="geometry">
            <Array as="points">
              <mxPoint x="703" y="120" />
            </Array>
          </mxGeometry>
        </mxCell>
        <mxCell id="pvK6tCkYXhJ5_Ju_K60p-10" value="new data state&lt;br&gt;topic" style="image;sketch=0;aspect=fixed;html=1;points=[];align=center;fontSize=12;image=img/lib/mscae/Event_Grid_Topics.svg;" vertex="1" parent="1">
          <mxGeometry x="678" y="189" width="50" height="50" as="geometry" />
        </mxCell>
        <mxCell id="pvK6tCkYXhJ5_Ju_K60p-36" style="edgeStyle=orthogonalEdgeStyle;rounded=0;orthogonalLoop=1;jettySize=auto;html=1;entryX=0.5;entryY=0;entryDx=0;entryDy=0;flowAnimation=1;" edge="1" parent="1" source="pvK6tCkYXhJ5_Ju_K60p-37" target="NSxlFpYSFV0zkJ1WkVVA-17">
          <mxGeometry relative="1" as="geometry" />
        </mxCell>
        <mxCell id="pvK6tCkYXhJ5_Ju_K60p-12" value="persist&amp;nbsp;&lt;div&gt;queue&lt;/div&gt;" style="verticalLabelPosition=bottom;html=1;verticalAlign=top;align=center;strokeColor=none;fillColor=#00BEF2;shape=mxgraph.azure.service_bus;pointerEvents=1;" vertex="1" parent="1">
          <mxGeometry x="800" y="100" width="40" height="39" as="geometry" />
        </mxCell>
        <mxCell id="pvK6tCkYXhJ5_Ju_K60p-16" value="storage data" style="verticalLabelPosition=bottom;html=1;verticalAlign=top;align=center;strokeColor=none;fillColor=#00BEF2;shape=mxgraph.azure.storage_blob;" vertex="1" parent="1">
          <mxGeometry x="1071" y="125" width="50" height="45" as="geometry" />
        </mxCell>
        <mxCell id="pvK6tCkYXhJ5_Ju_K60p-19" value="" style="edgeStyle=orthogonalEdgeStyle;rounded=0;orthogonalLoop=1;jettySize=auto;html=1;flowAnimation=1;" edge="1" parent="1" source="pvK6tCkYXhJ5_Ju_K60p-17" target="pvK6tCkYXhJ5_Ju_K60p-16">
          <mxGeometry relative="1" as="geometry" />
        </mxCell>
        <mxCell id="pvK6tCkYXhJ5_Ju_K60p-17" value="expurg&lt;br&gt;&lt;div&gt;(only very&amp;nbsp;&lt;/div&gt;&lt;div&gt;old data)&lt;/div&gt;" style="image;aspect=fixed;html=1;points=[];align=center;fontSize=12;image=img/lib/azure2/compute/Function_Apps.svg;" vertex="1" parent="1">
          <mxGeometry x="1071.25" y="220.5" width="49.5" height="43.68" as="geometry" />
        </mxCell>
        <mxCell id="pvK6tCkYXhJ5_Ju_K60p-31" style="edgeStyle=orthogonalEdgeStyle;rounded=0;orthogonalLoop=1;jettySize=auto;html=1;flowAnimation=1;" edge="1" parent="1" source="pvK6tCkYXhJ5_Ju_K60p-34">
          <mxGeometry relative="1" as="geometry">
            <mxPoint x="867" y="232.84000000000003" as="sourcePoint" />
            <mxPoint x="940" y="360" as="targetPoint" />
            <Array as="points">
              <mxPoint x="867" y="360" />
            </Array>
          </mxGeometry>
        </mxCell>
        <mxCell id="pvK6tCkYXhJ5_Ju_K60p-20" value="projector&lt;div&gt;queue&lt;/div&gt;" style="verticalLabelPosition=bottom;html=1;verticalAlign=top;align=center;strokeColor=none;fillColor=#00BEF2;shape=mxgraph.azure.service_bus;pointerEvents=1;" vertex="1" parent="1">
          <mxGeometry x="850" y="193.84" width="40" height="39" as="geometry" />
        </mxCell>
        <mxCell id="pvK6tCkYXhJ5_Ju_K60p-21" style="edgeStyle=orthogonalEdgeStyle;rounded=0;orthogonalLoop=1;jettySize=auto;html=1;entryX=0;entryY=0.5;entryDx=0;entryDy=0;entryPerimeter=0;startArrow=classic;startFill=0;endArrow=none;flowAnimation=1;dashed=1;" edge="1" parent="1" source="pvK6tCkYXhJ5_Ju_K60p-10" target="pvK6tCkYXhJ5_Ju_K60p-20">
          <mxGeometry relative="1" as="geometry" />
        </mxCell>
        <mxCell id="pvK6tCkYXhJ5_Ju_K60p-22" value="invalidate&amp;nbsp;&lt;div&gt;queue&lt;/div&gt;" style="verticalLabelPosition=bottom;html=1;verticalAlign=top;align=center;strokeColor=none;fillColor=#00BEF2;shape=mxgraph.azure.service_bus;pointerEvents=1;" vertex="1" parent="1">
          <mxGeometry x="774" y="255" width="40" height="39" as="geometry" />
        </mxCell>
        <mxCell id="pvK6tCkYXhJ5_Ju_K60p-24" style="edgeStyle=orthogonalEdgeStyle;rounded=0;orthogonalLoop=1;jettySize=auto;html=1;entryX=0.405;entryY=0;entryDx=0;entryDy=0;entryPerimeter=0;startArrow=classic;startFill=0;endArrow=none;dashed=1;flowAnimation=1;" edge="1" parent="1" source="pvK6tCkYXhJ5_Ju_K60p-10" target="pvK6tCkYXhJ5_Ju_K60p-22">
          <mxGeometry relative="1" as="geometry" />
        </mxCell>
        <mxCell id="pvK6tCkYXhJ5_Ju_K60p-26" value="" style="edgeStyle=orthogonalEdgeStyle;rounded=0;orthogonalLoop=1;jettySize=auto;html=1;dashed=1;flowAnimation=1;" edge="1" parent="1" source="pvK6tCkYXhJ5_Ju_K60p-25" target="pvK6tCkYXhJ5_Ju_K60p-22">
          <mxGeometry relative="1" as="geometry" />
        </mxCell>
        <mxCell id="pvK6tCkYXhJ5_Ju_K60p-25" value="invalidate&amp;nbsp;&lt;div&gt;function&lt;/div&gt;" style="image;aspect=fixed;html=1;points=[];align=center;fontSize=12;image=img/lib/azure2/iot/Function_Apps.svg;" vertex="1" parent="1">
          <mxGeometry x="702" y="330.12" width="32" height="28.23" as="geometry" />
        </mxCell>
        <mxCell id="pvK6tCkYXhJ5_Ju_K60p-27" style="edgeStyle=orthogonalEdgeStyle;rounded=0;orthogonalLoop=1;jettySize=auto;html=1;entryX=0.92;entryY=0.5;entryDx=0;entryDy=0;entryPerimeter=0;flowAnimation=1;" edge="1" parent="1" source="pvK6tCkYXhJ5_Ju_K60p-25" target="NSxlFpYSFV0zkJ1WkVVA-14">
          <mxGeometry relative="1" as="geometry" />
        </mxCell>
        <mxCell id="pvK6tCkYXhJ5_Ju_K60p-28" value="invalidade&lt;div&gt;data state&lt;/div&gt;" style="edgeLabel;html=1;align=center;verticalAlign=middle;resizable=0;points=[];" vertex="1" connectable="0" parent="pvK6tCkYXhJ5_Ju_K60p-27">
          <mxGeometry x="0.0394" y="5" relative="1" as="geometry">
            <mxPoint as="offset" />
          </mxGeometry>
        </mxCell>
        <mxCell id="pvK6tCkYXhJ5_Ju_K60p-29" value="CosmoDB" style="shape=image;verticalLabelPosition=bottom;labelBackgroundColor=#ffffff;verticalAlign=top;aspect=fixed;imageAspect=0;image=data:image/svg+xml,PHN2ZyB4bWxuczpjYz0iaHR0cDovL2NyZWF0aXZlY29tbW9ucy5vcmcvbnMjIiB4bWxuczpkYz0iaHR0cDovL3B1cmwub3JnL2RjL2VsZW1lbnRzLzEuMS8iIHhtbG5zOmlua3NjYXBlPSJodHRwOi8vd3d3Lmlua3NjYXBlLm9yZy9uYW1lc3BhY2VzL2lua3NjYXBlIiB4bWxuczpyZGY9Imh0dHA6Ly93d3cudzMub3JnLzE5OTkvMDIvMjItcmRmLXN5bnRheC1ucyMiIHhtbG5zOnNvZGlwb2RpPSJodHRwOi8vc29kaXBvZGkuc291cmNlZm9yZ2UubmV0L0RURC9zb2RpcG9kaS0wLmR0ZCIgeG1sbnM6c3ZnPSJodHRwOi8vd3d3LnczLm9yZy8yMDAwL3N2ZyIgeG1sbnM9Imh0dHA6Ly93d3cudzMub3JnLzIwMDAvc3ZnIiB4bWxuczp4bGluaz0iaHR0cDovL3d3dy53My5vcmcvMTk5OS94bGluayIgdmVyc2lvbj0iMS4xIiBpZD0ic3ZnNzQzMTIiIGlua3NjYXBlOnZlcnNpb249IjAuOTIuMyAoMjQwNTU0NiwgMjAxOC0wMy0xMSkiIHNvZGlwb2RpOmRvY25hbWU9ImNvc21vZGIuc3ZnIiB4PSIwcHgiIHk9IjBweCIgdmlld0JveD0iMCAwIDM3LjQ3IDM0LjUxIiBzdHlsZT0iZW5hYmxlLWJhY2tncm91bmQ6bmV3IDAgMCAzNy40NyAzNC41MTsiIHhtbDpzcGFjZT0icHJlc2VydmUiPiYjeGE7PHNvZGlwb2RpOm5hbWVkdmlldyBib3JkZXJjb2xvcj0iIzY2NjY2NiIgYm9yZGVyb3BhY2l0eT0iMSIgZml0LW1hcmdpbi1ib3R0b209IjAiIGZpdC1tYXJnaW4tbGVmdD0iMCIgZml0LW1hcmdpbi1yaWdodD0iMCIgZml0LW1hcmdpbi10b3A9IjAiIGdyaWR0b2xlcmFuY2U9IjEwIiBndWlkZXRvbGVyYW5jZT0iMTAiIGlkPSJuYW1lZHZpZXc3NDMxNCIgaW5rc2NhcGU6Y3VycmVudC1sYXllcj0ic3ZnNzQzMTIiIGlua3NjYXBlOmN4PSIzNi4xMzQwNTciIGlua3NjYXBlOmN5PSIyMS44MTg5OSIgaW5rc2NhcGU6cGFnZW9wYWNpdHk9IjAiIGlua3NjYXBlOnBhZ2VzaGFkb3c9IjIiIGlua3NjYXBlOndpbmRvdy1oZWlnaHQ9IjEwMTciIGlua3NjYXBlOndpbmRvdy1tYXhpbWl6ZWQ9IjEiIGlua3NjYXBlOndpbmRvdy13aWR0aD0iMTkyMCIgaW5rc2NhcGU6d2luZG93LXg9Ii04IiBpbmtzY2FwZTp3aW5kb3cteT0iLTgiIGlua3NjYXBlOnpvb209IjEyLjc3MjExNiIgb2JqZWN0dG9sZXJhbmNlPSIxMCIgcGFnZWNvbG9yPSIjZmZmZmZmIiBzaG93Z3JpZD0iZmFsc2UiPiYjeGE7CTwvc29kaXBvZGk6bmFtZWR2aWV3PiYjeGE7PGcgaWQ9Imc3NDMxMCIgdHJhbnNmb3JtPSJ0cmFuc2xhdGUoLTAuNzUwMDMzMjMsLTAuNzQ1KSI+JiN4YTsJPHRpdGxlIGlkPSJ0aXRsZTc0MjcwIj5QYWdlLTE8L3RpdGxlPiYjeGE7CTxnIGlkPSJncm91cDQ4ODUtMSIgdHJhbnNmb3JtPSJ0cmFuc2xhdGUoMC4yMjUsLTAuNzUpIj4mI3hhOwkJPHRpdGxlIGlkPSJ0aXRsZTc0MjcyIj5Db3NtbyBEQjwvdGl0bGU+JiN4YTsJCTxnIGlkPSJzaGFwZTQ4ODYtMiIgdHJhbnNmb3JtPSJ0cmFuc2xhdGUoNS43NzUsLTIuNTUpIj4mI3hhOwkJCTx0aXRsZSBpZD0idGl0bGU3NDI3NCI+U2hlZXQuNDg4NjwvdGl0bGU+JiN4YTsJCQk8cGF0aCBpZD0icGF0aDc0Mjc2IiBpbmtzY2FwZTpjb25uZWN0b3ItY3VydmF0dXJlPSIwIiBzdHlsZT0iZmlsbDojNTlCNEQ5OyIgZD0iTTI1LjczLDE5LjVjMS41Nyw2LjY4LTIuNDgsMTMuMzUtOS4xNSwxNC45MyAgICAgQzkuOSwzNiwzLjMsMzIuMDMsMS42NSwyNS4zNUMwLDE4LjY4LDQuMTMsMTIsMTAuOCwxMC40M2wwLDBDMTcuNCw4Ljc4LDI0LjA4LDEyLjgzLDI1LjczLDE5LjVMMjUuNzMsMTkuNXoiLz4mI3hhOwkJPC9nPiYjeGE7CQk8ZyBpZD0ic2hhcGU0ODg3LTQiIHRyYW5zZm9ybT0idHJhbnNsYXRlKDYuNiwtNy44NzUpIj4mI3hhOwkJCTx0aXRsZSBpZD0idGl0bGU3NDI3OSI+U2hlZXQuNDg4NzwvdGl0bGU+JiN4YTsJCQk8cGF0aCBpZD0icGF0aDc0MjgxIiBpbmtzY2FwZTpjb25uZWN0b3ItY3VydmF0dXJlPSIwIiBzdHlsZT0iZmlsbDojRkZGRkZGO2ZpbGwtb3BhY2l0eTowLjU7IiBkPSJNMTEuMSwzMi43ICAgICBjMC0xLjgtMS41LTMuMy0zLjMtMy4zbDAsMEg3LjI4YzAuNDUtMS43Mi0wLjY4LTMuNTItMi40LTMuOTdjLTAuMjMtMC4wOC0wLjUzLTAuMDgtMC44My0wLjA4aC0zLjMgICAgIGMtMC43NSwzLjgzLDAuMzgsNy43MywzLDEwLjU4aDQuMTNDOS42OCwzNiwxMS4xLDM0LjU4LDExLjEsMzIuN0wxMS4xLDMyLjd6Ii8+JiN4YTsJCTwvZz4mI3hhOwkJPGcgaWQ9InNoYXBlNDg4OC02IiB0cmFuc2Zvcm09InRyYW5zbGF0ZSgxNy4wMjUsLTE3LjI1KSI+JiN4YTsJCQk8dGl0bGUgaWQ9InRpdGxlNzQyODQiPlNoZWV0LjQ4ODg8L3RpdGxlPiYjeGE7CQkJPHBhdGggaWQ9InBhdGg3NDI4NiIgaW5rc2NhcGU6Y29ubmVjdG9yLWN1cnZhdHVyZT0iMCIgc3R5bGU9ImZpbGw6I0ZGRkZGRjtmaWxsLW9wYWNpdHk6MC41OyIgZD0iTTQuOCwyOC41ICAgICBjMCwwLjIzLDAsMC4zOCwwLjA3LDAuNkgzLjQ1QzEuNTcsMjkuMSwwLDMwLjYsMCwzMi41NVMxLjUsMzYsMy40NSwzNmgxMS4zMkMxNC40LDMxLjgsMTIsMjguMiw4LjQsMjYuMjVINy4wNSAgICAgQzUuNzcsMjYuMjUsNC44LDI3LjIzLDQuOCwyOC41eiIvPiYjeGE7CQk8L2c+JiN4YTsJCTxnIGlkPSJzaGFwZTQ4ODktOCIgdHJhbnNmb3JtPSJ0cmFuc2xhdGUoMjAuMzI1LC01LjMyNSkiPiYjeGE7CQkJPHRpdGxlIGlkPSJ0aXRsZTc0Mjg5Ij5TaGVldC40ODg5PC90aXRsZT4mI3hhOwkJCTxwYXRoIGlkPSJwYXRoNzQyOTEiIGlua3NjYXBlOmNvbm5lY3Rvci1jdXJ2YXR1cmU9IjAiIHN0eWxlPSJmaWxsOiNGRkZGRkY7ZmlsbC1vcGFjaXR5OjAuNTsiIGQ9Ik0xMS40OCwyNi40OEg0LjczICAgICBjLTEuNSwwLTIuNzgsMS4yLTIuNzgsMi43N2MwLDAuNDUsMC4xNSwwLjksMC4zLDEuMzVjLTEuNSwwLjQ1LTIuMjUsMi4wMy0xLjgsMy40NUMwLjgzLDM1LjI1LDEuODgsMzYsMy4xNSwzNmgxLjggICAgIEM4LjU1LDM0LjEzLDExLjAzLDMwLjUzLDExLjQ4LDI2LjQ4eiIvPiYjeGE7CQk8L2c+JiN4YTsJCTxnIGlkPSJzaGFwZTQ4OTAtMTAiIHRyYW5zZm9ybT0idHJhbnNsYXRlKDAuNTI1LC0yNC4zNzUpIj4mI3hhOwkJCTx0aXRsZSBpZD0idGl0bGU3NDI5NCI+U2hlZXQuNDg5MDwvdGl0bGU+JiN4YTsJCQk8cGF0aCBpZD0icGF0aDc0Mjk2IiBpbmtzY2FwZTpjb25uZWN0b3ItY3VydmF0dXJlPSIwIiBzdHlsZT0iZmlsbDojQjhENDMyOyIgZD0iTTUuMSwzNmMtMC4yMiwwLTAuMzctMC4xNS0wLjM3LTAuMzcgICAgIGMwLTIuNC0xLjk1LTQuMzUtNC4zNS00LjM1QzAuMTUsMzEuMzUsMCwzMS4xMywwLDMwLjk4czAuMTUtMC4zOCwwLjM4LTAuMzhjMi40LDAsNC4zNS0xLjk1LDQuMzUtNC4zNSAgICAgYzAtMC4yMywwLjE1LTAuMzgsMC4zNy0wLjM4YzAuMjMsMCwwLjM4LDAuMTUsMC4zOCwwLjM4YzAsMi40LDEuOTUsNC4zNSw0LjM1LDQuMzVjMC4yMiwwLDAuMzcsMC4xNSwwLjM3LDAuMzggICAgIGMwLDAuMjItMC4xNSwwLjM3LTAuMzcsMC4zN2MtMi40LDAtNC4zNSwxLjk1LTQuMzUsNC4zNUM1LjQ4LDM1Ljg1LDUuMzMsMzYsNS4xLDM2eiIvPiYjeGE7CQk8L2c+JiN4YTsJCTxnIGlkPSJzaGFwZTQ4OTEtMTIiIHRyYW5zZm9ybT0idHJhbnNsYXRlKDI5LjI1KSI+JiN4YTsJCQk8dGl0bGUgaWQ9InRpdGxlNzQyOTkiPlNoZWV0LjQ4OTE8L3RpdGxlPiYjeGE7CQkJPHBhdGggaWQ9InBhdGg3NDMwMSIgaW5rc2NhcGU6Y29ubmVjdG9yLWN1cnZhdHVyZT0iMCIgc3R5bGU9ImZpbGw6IzI2QkNFRTsiIGQ9Ik0zLjA3LDM2Yy0wLjE1LDAtMC4yMi0wLjA3LTAuMjItMC4yMiAgICAgYzAtMS40My0xLjItMi41NS0yLjYzLTIuNTVDMC4wNywzMy4yMywwLDMzLjE1LDAsMzNzMC4wNy0wLjIyLDAuMjItMC4yMmwwLDBjMS40MywwLDIuNTUtMS4xMywyLjYzLTIuNTUgICAgIGMwLTAuMTUsMC4wNy0wLjIzLDAuMjItMC4yM3MwLjIzLDAuMDgsMC4yMywwLjIzYzAsMS40MiwxLjIsMi41NSwyLjYyLDIuNTVjMC4xNSwwLDAuMjMsMC4wNywwLjIzLDAuMjJzLTAuMDgsMC4yMy0wLjIzLDAuMjMgICAgIGwwLDBjLTEuNDIsMC0yLjU1LDEuMTItMi42MiwyLjU1QzMuMywzNS44NSwzLjIyLDM2LDMuMDcsMzZDMy4wNywzNiwzLjA3LDM2LDMuMDcsMzZ6Ii8+JiN4YTsJCTwvZz4mI3hhOwkJPGcgaWQ9InNoYXBlNDg5Mi0xNCIgdHJhbnNmb3JtPSJ0cmFuc2xhdGUoMCwtMy4zNzUpIj4mI3hhOwkJCTx0aXRsZSBpZD0idGl0bGU3NDMwNCI+U2hlZXQuNDg5MjwvdGl0bGU+JiN4YTsJCQk8cGF0aCBpZD0icGF0aDc0MzA2IiBpbmtzY2FwZTpjb25uZWN0b3ItY3VydmF0dXJlPSIwIiBzdHlsZT0iZmlsbDojMEYwRjBGOyIgZD0iTTM3LjUsMTIuMTVjLTEuMi0xLjk1LTQuMTMtMi40LTguNjMtMS4yNyAgICAgYy0xLjM1LDAuMzctMi43NywwLjc1LTQuMDUsMS4yN2MwLjgzLDAuNDUsMS42NSwwLjksMi40LDEuNWMwLjc1LTAuMjIsMS41LTAuNDUsMi4xOC0wLjY3YzEuMi0wLjMsMi40LTAuNDUsMy42LTAuNTMgICAgIGMxLjQyLDAsMi4yNSwwLjM4LDIuNTUsMC44M2MwLjQ1LDAuNzUsMCwyLjYyLTIuNTUsNS42MmMtMC40NSwwLjUzLTAuOTgsMS4wNS0xLjUsMS41OGMtMi44NSwyLjctNS45Myw1LjEtOS4zLDcuMTIgICAgIGMtMy4zNywyLjEtNi45LDMuODMtMTAuNjUsNS4wM2MtNC41LDEuNDItNy41NywxLjQyLTguMjUsMC4zYy0wLjY4LTEuMTMsMC42OC0zLjksNC4wNS03LjJjLTAuMjMtMC45OC0wLjMtMS45NS0wLjMtMi44NSAgICAgYy01LjMyLDQuOC03LjA1LDktNS43LDExLjI1QzIuMSwzNS4zMywzLjY3LDM2LDUuOTIsMzZjMi43LTAuMTUsNS40LTAuNjcsNy45NS0xLjcyYzMuMy0xLjI4LDYuNDUtMi44NSw5LjM4LTQuNzMgICAgIGMzLTEuOCw1Ljg1LTMuOSw4LjQ3LTYuM2MxLjA1LTAuOSwyLjAzLTEuODcsMi45My0yLjkyQzM3LjcyLDE2Ljg4LDM4LjcsMTQuMDMsMzcuNSwxMi4xNXoiLz4mI3hhOwkJPC9nPiYjeGE7CTwvZz4mI3hhOzwvZz4mI3hhOzwvc3ZnPg==;" vertex="1" parent="1">
          <mxGeometry x="944.0000000000001" y="344" width="37" height="35" as="geometry" />
        </mxCell>
        <mxCell id="pvK6tCkYXhJ5_Ju_K60p-32" style="edgeStyle=orthogonalEdgeStyle;rounded=0;orthogonalLoop=1;jettySize=auto;html=1;entryX=0;entryY=0.5;entryDx=0;entryDy=0;entryPerimeter=0;flowAnimation=1;" edge="1" parent="1" source="NSxlFpYSFV0zkJ1WkVVA-23" target="NSxlFpYSFV0zkJ1WkVVA-48">
          <mxGeometry relative="1" as="geometry" />
        </mxCell>
        <mxCell id="pvK6tCkYXhJ5_Ju_K60p-35" value="" style="edgeStyle=orthogonalEdgeStyle;rounded=0;orthogonalLoop=1;jettySize=auto;html=1;flowAnimation=1;dashed=1;" edge="1" parent="1" target="pvK6tCkYXhJ5_Ju_K60p-34">
          <mxGeometry relative="1" as="geometry">
            <mxPoint x="867" y="232.84000000000003" as="sourcePoint" />
            <mxPoint x="940" y="360" as="targetPoint" />
            <Array as="points" />
          </mxGeometry>
        </mxCell>
        <mxCell id="pvK6tCkYXhJ5_Ju_K60p-58" value="" style="edgeStyle=orthogonalEdgeStyle;rounded=0;orthogonalLoop=1;jettySize=auto;html=1;flowAnimation=1;" edge="1" parent="1" source="pvK6tCkYXhJ5_Ju_K60p-34">
          <mxGeometry relative="1" as="geometry">
            <mxPoint x="820.5" y="358.20000000000005" as="targetPoint" />
          </mxGeometry>
        </mxCell>
        <mxCell id="pvK6tCkYXhJ5_Ju_K60p-34" value="projector&amp;nbsp;&lt;div&gt;function&lt;/div&gt;" style="image;aspect=fixed;html=1;points=[];align=center;fontSize=12;image=img/lib/azure2/iot/Function_Apps.svg;" vertex="1" parent="1">
          <mxGeometry x="852" y="344.12" width="32" height="28.23" as="geometry" />
        </mxCell>
        <mxCell id="pvK6tCkYXhJ5_Ju_K60p-56" value="" style="edgeStyle=orthogonalEdgeStyle;rounded=0;orthogonalLoop=1;jettySize=auto;html=1;flowAnimation=1;" edge="1" parent="1" source="pvK6tCkYXhJ5_Ju_K60p-37">
          <mxGeometry relative="1" as="geometry">
            <mxPoint x="1010" y="119.89999999999998" as="targetPoint" />
          </mxGeometry>
        </mxCell>
        <mxCell id="pvK6tCkYXhJ5_Ju_K60p-37" value="persist&lt;br&gt;function" style="image;aspect=fixed;html=1;points=[];align=center;fontSize=12;image=img/lib/azure2/iot/Function_Apps.svg;" vertex="1" parent="1">
          <mxGeometry x="945" y="105.77000000000001" width="32" height="28.23" as="geometry" />
        </mxCell>
        <mxCell id="pvK6tCkYXhJ5_Ju_K60p-39" style="edgeStyle=orthogonalEdgeStyle;rounded=0;orthogonalLoop=1;jettySize=auto;html=1;entryX=0;entryY=0.469;entryDx=0;entryDy=0;entryPerimeter=0;startArrow=classic;startFill=1;dashed=1;flowAnimation=1;" edge="1" parent="1" source="pvK6tCkYXhJ5_Ju_K60p-12" target="pvK6tCkYXhJ5_Ju_K60p-37">
          <mxGeometry relative="1" as="geometry" />
        </mxCell>
        <mxCell id="pvK6tCkYXhJ5_Ju_K60p-42" style="edgeStyle=orthogonalEdgeStyle;rounded=0;orthogonalLoop=1;jettySize=auto;html=1;flowAnimation=1;" edge="1" parent="1" source="pvK6tCkYXhJ5_Ju_K60p-41" target="NSxlFpYSFV0zkJ1WkVVA-17">
          <mxGeometry relative="1" as="geometry">
            <Array as="points">
              <mxPoint x="1082" y="330" />
              <mxPoint x="962" y="330" />
            </Array>
          </mxGeometry>
        </mxCell>
        <mxCell id="pvK6tCkYXhJ5_Ju_K60p-43" value="ingestion" style="edgeLabel;html=1;align=center;verticalAlign=middle;resizable=0;points=[];" vertex="1" connectable="0" parent="pvK6tCkYXhJ5_Ju_K60p-42">
          <mxGeometry x="-0.0161" y="-1" relative="1" as="geometry">
            <mxPoint as="offset" />
          </mxGeometry>
        </mxCell>
        <mxCell id="pvK6tCkYXhJ5_Ju_K60p-45" value="" style="edgeStyle=orthogonalEdgeStyle;rounded=0;orthogonalLoop=1;jettySize=auto;html=1;startArrow=classic;startFill=0;endArrow=none;" edge="1" parent="1" source="pvK6tCkYXhJ5_Ju_K60p-41" target="pvK6tCkYXhJ5_Ju_K60p-44">
          <mxGeometry relative="1" as="geometry" />
        </mxCell>
        <mxCell id="pvK6tCkYXhJ5_Ju_K60p-41" value="databricks" style="image;aspect=fixed;html=1;points=[];align=center;fontSize=12;image=img/lib/azure2/analytics/Azure_Databricks.svg;" vertex="1" parent="1">
          <mxGeometry x="1051" y="368" width="62.8" height="68" as="geometry" />
        </mxCell>
        <mxCell id="pvK6tCkYXhJ5_Ju_K60p-44" value="power bi" style="image;aspect=fixed;html=1;points=[];align=center;fontSize=12;image=img/lib/azure2/power_platform/PowerBI.svg;" vertex="1" parent="1">
          <mxGeometry x="1056.9" y="504" width="51" height="68" as="geometry" />
        </mxCell>
        <mxCell id="pvK6tCkYXhJ5_Ju_K60p-47" style="edgeStyle=orthogonalEdgeStyle;rounded=0;orthogonalLoop=1;jettySize=auto;html=1;" edge="1" parent="1" source="pvK6tCkYXhJ5_Ju_K60p-46" target="pvK6tCkYXhJ5_Ju_K60p-44">
          <mxGeometry relative="1" as="geometry" />
        </mxCell>
        <mxCell id="pvK6tCkYXhJ5_Ju_K60p-46" value="" style="points=[[0.35,0,0],[0.98,0.51,0],[1,0.71,0],[0.67,1,0],[0,0.795,0],[0,0.65,0]];verticalLabelPosition=bottom;sketch=0;html=1;verticalAlign=top;aspect=fixed;align=center;pointerEvents=1;shape=mxgraph.cisco19.user;fillColor=#005073;strokeColor=none;" vertex="1" parent="1">
          <mxGeometry x="1056.9" y="660" width="50" height="50" as="geometry" />
        </mxCell>
        <mxCell id="pvK6tCkYXhJ5_Ju_K60p-60" style="edgeStyle=orthogonalEdgeStyle;rounded=0;orthogonalLoop=1;jettySize=auto;html=1;entryX=1;entryY=0.5;entryDx=0;entryDy=0;entryPerimeter=0;curved=1;flowAnimation=1;" edge="1" parent="1" source="pvK6tCkYXhJ5_Ju_K60p-25">
          <mxGeometry relative="1" as="geometry">
            <mxPoint x="667.5" y="293.69499999999994" as="targetPoint" />
            <Array as="points">
              <mxPoint x="710" y="310" />
              <mxPoint x="688" y="310" />
              <mxPoint x="688" y="294" />
            </Array>
          </mxGeometry>
        </mxCell>
        <mxCell id="pvK6tCkYXhJ5_Ju_K60p-67" value="elastic" style="shape=image;verticalLabelPosition=bottom;labelBackgroundColor=default;verticalAlign=top;aspect=fixed;imageAspect=0;image=https://icons.veryicon.com/png/o/education-technology/product-icon-of-apstar-big-data/elastic-search-blue.png;" vertex="1" parent="1">
          <mxGeometry x="1010" y="107" width="32" height="32" as="geometry" />
        </mxCell>
        <mxCell id="pvK6tCkYXhJ5_Ju_K60p-68" value="elastic" style="shape=image;verticalLabelPosition=bottom;labelBackgroundColor=default;verticalAlign=top;aspect=fixed;imageAspect=0;image=https://icons.veryicon.com/png/o/education-technology/product-icon-of-apstar-big-data/elastic-search-blue.png;" vertex="1" parent="1">
          <mxGeometry x="642" y="278" width="32" height="32" as="geometry" />
        </mxCell>
        <mxCell id="pvK6tCkYXhJ5_Ju_K60p-69" value="elastic" style="shape=image;verticalLabelPosition=bottom;labelBackgroundColor=default;verticalAlign=top;aspect=fixed;imageAspect=0;image=https://icons.veryicon.com/png/o/education-technology/product-icon-of-apstar-big-data/elastic-search-blue.png;" vertex="1" parent="1">
          <mxGeometry x="790" y="345.5" width="32" height="32" as="geometry" />
        </mxCell>
        <mxCell id="pvK6tCkYXhJ5_Ju_K60p-70" value="elastic" style="shape=image;verticalLabelPosition=bottom;labelBackgroundColor=default;verticalAlign=top;aspect=fixed;imageAspect=0;image=https://icons.veryicon.com/png/o/education-technology/product-icon-of-apstar-big-data/elastic-search-blue.png;" vertex="1" parent="1">
          <mxGeometry x="521" y="557" width="32" height="32" as="geometry" />
        </mxCell>
        <mxCell id="pvK6tCkYXhJ5_Ju_K60p-71" value="elastic" style="shape=image;verticalLabelPosition=bottom;labelBackgroundColor=default;verticalAlign=top;aspect=fixed;imageAspect=0;image=https://icons.veryicon.com/png/o/education-technology/product-icon-of-apstar-big-data/elastic-search-blue.png;" vertex="1" parent="1">
          <mxGeometry x="520" y="111" width="32" height="32" as="geometry" />
        </mxCell>
      </root>
    </mxGraphModel>
  </diagram>
</mxfile>
